<?xml version="1.0" standalone="no"?>
<!DOCTYPE svg PUBLIC "-//W3C//DTD SVG 20010904//EN"
 "http://www.w3.org/TR/2001/REC-SVG-20010904/DTD/svg10.dtd">
<svg version="1.0" xmlns="http://www.w3.org/2000/svg"
 width="1172.000000pt" height="1172.000000pt" viewBox="0 0 1172.000000 1172.000000"
 preserveAspectRatio="xMidYMid meet">

<g transform="translate(0.000000,1172.000000) scale(0.100000,-0.100000)"
fill="#000000" stroke="none">
<path d="M5903 11549 c-30 -19 -37 -20 -87 -8 -66 14 -84 9 -88 -28 -3 -26 -7
-28 -48 -30 -25 -1 -73 8 -108 19 -69 22 -85 17 -103 -29 -12 -32 -29 -29 -29
5 0 17 -10 38 -24 51 -22 21 -31 23 -73 16 -31 -4 -55 -15 -70 -31 -26 -28
-47 -23 -68 15 l-14 26 -1 -26 c0 -14 -7 -34 -15 -45 -15 -19 -15 -19 -30 0
-13 17 -15 17 -21 3 -8 -21 -57 -22 -74 -2 -16 19 -36 19 -44 0 -4 -12 -15
-14 -43 -9 -21 3 -50 1 -66 -5 -23 -9 -26 -15 -21 -36 9 -37 -15 -114 -40
-127 -12 -6 -34 -26 -49 -44 -16 -19 -34 -34 -40 -34 -7 0 -38 23 -70 50 -32
28 -65 50 -72 50 -7 0 -15 7 -19 15 -8 22 -63 19 -75 -3 -7 -13 -6 -23 1 -30
19 -19 -32 -15 -53 4 -14 12 -27 14 -61 7 -38 -7 -46 -14 -70 -58 -17 -33 -27
-66 -27 -98 -1 -71 -25 -104 -86 -122 -41 -12 -56 -22 -78 -56 -28 -42 -34
-73 -17 -84 18 -11 29 -41 20 -54 -6 -11 -13 -10 -37 4 -25 14 -39 16 -79 9
-42 -8 -49 -13 -52 -34 -6 -50 -11 -55 -35 -31 -13 11 -28 21 -34 21 -6 0 -16
7 -23 15 -10 12 -28 15 -69 13 -54 -3 -55 -4 -64 -38 -5 -19 -12 -61 -16 -94
-7 -62 -33 -96 -72 -96 -27 0 -35 -27 -15 -49 9 -10 16 -25 16 -34 0 -17 9
-41 46 -125 27 -60 31 -92 9 -92 -26 0 -38 -37 -20 -62 22 -33 19 -103 -6
-137 -22 -30 -38 -91 -39 -149 0 -19 -6 -48 -14 -65 -35 -81 -46 -122 -46
-179 0 -34 -7 -100 -15 -147 -8 -47 -19 -115 -24 -151 -6 -36 -17 -108 -25
-160 -48 -301 -56 -484 -32 -697 12 -105 18 -130 46 -179 29 -52 32 -63 26
-118 -8 -90 -17 -136 -27 -142 -5 -3 -22 21 -37 53 -45 95 -121 193 -149 193
-8 0 -25 11 -38 24 -21 21 -26 22 -44 10 -39 -28 -61 -80 -77 -185 -30 -196
-34 -221 -49 -280 -21 -81 -23 -211 -4 -279 18 -64 36 -100 49 -100 16 0 12
56 -5 70 -11 9 -12 17 -4 32 7 13 14 17 18 10 3 -6 19 -15 34 -21 25 -10 27
-9 27 15 0 13 -7 27 -15 30 -8 3 -26 29 -39 57 -23 45 -25 58 -19 121 3 39 17
102 30 140 12 38 23 78 23 88 0 24 37 98 49 98 5 0 19 -12 30 -26 17 -22 23
-24 36 -14 8 7 14 18 13 24 -1 6 5 24 12 39 11 23 19 27 44 25 30 -3 31 -6 37
-58 4 -30 10 -64 14 -76 9 -27 -10 -42 -68 -53 -26 -4 -57 -15 -70 -24 -29
-19 -57 -97 -64 -180 -6 -56 -5 -58 41 -116 25 -33 46 -63 46 -68 0 -5 20 -19
45 -31 27 -13 50 -34 60 -53 9 -17 26 -97 37 -177 l20 -146 -21 -17 c-45 -37
-160 27 -178 100 -3 14 -15 32 -25 39 -10 8 -18 25 -18 43 0 36 -15 66 -47 97
-25 23 -43 29 -43 13 0 -4 13 -35 30 -67 16 -32 30 -64 30 -71 0 -24 43 -94
87 -144 51 -55 107 -89 151 -89 55 0 63 -15 73 -145 5 -66 14 -130 19 -143 6
-13 10 -36 10 -53 0 -39 46 -311 71 -424 11 -49 29 -109 40 -133 10 -23 19
-47 19 -52 0 -6 14 -39 30 -74 30 -63 48 -173 76 -467 l7 -66 -48 -33 c-26
-18 -67 -39 -91 -46 -62 -19 -84 -32 -84 -53 0 -10 7 -24 15 -31 22 -18 18
-56 -6 -74 -18 -12 -26 -13 -61 0 -22 8 -42 14 -43 14 -2 0 -22 -16 -46 -35
-23 -20 -48 -34 -56 -31 -8 4 -13 -2 -13 -18 0 -12 -11 -33 -25 -46 -25 -24
-115 -151 -115 -163 0 -4 9 -7 19 -7 11 0 32 17 48 38 15 20 39 48 53 62 14
14 37 39 52 55 15 17 35 37 45 46 24 21 103 51 103 40 0 -6 -4 -13 -10 -16 -5
-3 -10 -17 -10 -30 0 -17 -4 -23 -14 -19 -13 5 -91 -88 -154 -182 -12 -19 -26
-34 -31 -34 -6 0 -13 -10 -17 -22 -3 -12 -22 -45 -40 -74 -19 -30 -39 -65 -44
-78 -5 -14 -20 -28 -32 -32 -24 -6 -82 -111 -94 -169 -4 -16 -31 -95 -60 -176
-30 -80 -54 -154 -54 -165 0 -23 49 -74 71 -74 18 1 49 24 49 38 0 5 -9 29
-20 53 -23 53 -25 79 -5 79 16 0 65 -88 65 -117 0 -10 7 -27 15 -37 14 -19 15
-19 51 0 20 10 41 29 47 42 10 22 10 22 29 -9 26 -43 16 -83 -25 -105 -18 -9
-52 -27 -77 -40 -25 -12 -58 -34 -75 -47 l-30 -25 35 -37 c47 -50 178 -176
216 -208 35 -29 90 -105 82 -113 -15 -14 -131 87 -285 250 -40 42 -77 76 -82
76 -17 0 -32 57 -26 94 9 45 -14 86 -49 86 -20 0 -25 -8 -36 -57 -7 -32 -18
-80 -26 -108 -7 -27 -16 -75 -20 -105 l-6 -55 30 35 29 35 22 -35 c35 -59 30
-72 -30 -69 -64 4 -68 -3 -78 -124 -9 -109 -2 -134 25 -88 10 17 24 31 30 31
7 0 24 -20 38 -44 18 -30 34 -45 53 -49 28 -5 114 -87 159 -151 21 -29 44 -29
44 0 0 18 -128 162 -150 169 -32 10 -100 85 -100 110 0 60 74 19 205 -114 60
-61 117 -111 126 -111 9 0 27 8 40 19 13 10 39 22 57 25 17 4 32 11 32 15 0 5
12 20 26 34 21 21 25 32 19 54 l-7 28 24 -21 c13 -12 33 -25 45 -29 13 -3 26
-17 29 -31 5 -20 -1 -33 -27 -61 -19 -19 -49 -42 -67 -50 -35 -14 -81 -60 -82
-79 0 -6 11 -21 25 -34 14 -13 25 -28 25 -34 1 -6 10 -22 21 -35 15 -19 24
-23 36 -15 16 10 47 80 67 152 6 24 16 44 21 44 15 2 72 -89 95 -150 16 -41
20 -78 20 -165 1 -148 23 -208 92 -248 39 -23 52 -26 83 -19 21 5 44 6 51 3
26 -10 14 14 -13 28 -49 24 -67 48 -55 72 6 12 10 36 10 52 0 17 -3 24 -5 17
-3 -6 -9 -10 -14 -6 -5 3 -5 13 1 25 12 21 5 38 -42 103 -15 21 -28 49 -28 61
0 12 -9 30 -20 40 -11 10 -20 26 -20 36 0 20 -31 89 -59 134 -11 17 -20 45
-20 63 -1 17 -5 32 -10 32 -17 0 -38 71 -32 108 5 28 12 38 28 40 12 2 27 10
33 18 10 11 9 14 -8 14 -32 0 -17 24 27 43 21 9 41 17 45 17 4 0 20 8 34 19
28 19 143 44 165 35 15 -5 57 31 57 49 0 7 10 21 23 32 19 17 20 20 5 23 -11
2 -18 13 -18 28 0 24 -31 64 -50 64 -10 0 -5 108 5 119 4 3 11 -2 17 -12 9
-16 13 -15 44 18 30 32 33 40 28 79 -6 40 -4 43 22 54 50 19 88 19 92 0 2 -11
-3 -18 -12 -18 -28 0 -17 -20 15 -27 17 -3 33 -13 37 -22 9 -24 34 -46 51 -46
11 0 15 -8 14 -23 -2 -14 3 -22 12 -22 8 0 15 5 15 10 0 6 5 10 10 10 6 0 10
-6 10 -14 0 -8 14 -19 30 -25 29 -10 30 -9 24 14 -7 29 9 33 32 10 9 -8 26
-15 40 -15 28 0 32 -24 8 -51 -25 -28 1 -31 40 -4 40 27 43 25 48 -35 3 -34 4
-35 53 -41 28 -3 58 -9 68 -14 12 -5 25 1 45 20 24 24 24 27 6 21 -18 -5 -21
-2 -22 24 -1 33 4 36 27 16 21 -17 101 -37 127 -30 11 3 26 -1 32 -9 10 -11 7
-16 -14 -26 -37 -16 -29 -47 11 -43 17 2 34 8 40 13 16 16 25 10 25 -15 0 -14
-10 -32 -22 -41 l-23 -17 29 5 c22 4 30 0 34 -15 4 -17 11 -19 43 -15 24 3 37
1 33 -4 -3 -6 6 -22 20 -36 19 -19 26 -22 26 -10 0 21 19 32 33 18 16 -16 38
-14 82 9 23 12 41 16 43 10 2 -5 30 -10 63 -10 38 0 69 -6 84 -16 30 -19 33
-6 5 19 -11 9 -20 26 -20 38 0 20 -4 21 -42 16 -24 -3 -36 -3 -28 0 8 3 19 12
23 19 4 8 24 14 43 14 27 0 34 -4 32 -16 -2 -9 5 -21 14 -27 14 -9 20 -8 31 7
18 25 49 17 65 -17 8 -16 20 -31 28 -34 8 -3 11 -9 8 -14 -3 -5 0 -9 6 -9 6 0
8 10 4 24 -8 32 15 46 33 20 10 -15 21 -19 53 -16 26 3 40 9 40 18 0 8 9 14
20 14 13 0 17 -5 14 -14 -6 -16 29 -31 46 -21 5 3 10 1 10 -4 0 -6 -4 -11 -10
-11 -5 0 -10 -7 -10 -15 0 -20 -36 -19 -44 1 -3 9 -15 14 -26 12 -25 -4 -27
-21 -4 -24 10 -2 21 -10 26 -18 11 -20 47 -21 62 -2 14 17 82 34 72 17 -13
-21 6 -11 25 13 14 18 31 26 62 28 38 3 42 6 45 31 3 20 8 27 20 25 13 -3 16
-13 14 -37 -3 -42 17 -38 37 7 11 24 21 32 35 30 15 -2 26 7 41 37 11 22 23
42 26 45 9 8 119 235 119 246 0 6 9 19 20 29 11 10 20 25 20 34 0 18 71 118
98 139 45 35 53 3 21 -88 -17 -50 -20 -73 -14 -131 4 -38 11 -72 16 -75 5 -3
9 2 9 10 0 8 7 22 16 30 11 12 14 27 10 54 -8 51 5 69 29 42 17 -19 18 -25 6
-53 -7 -18 -17 -52 -21 -77 -4 -25 -14 -57 -20 -72 -7 -15 -10 -34 -7 -43 6
-13 10 -13 27 -3 51 31 66 -71 18 -131 -31 -41 -50 -35 -68 21 -21 67 -50 61
-50 -11 0 -31 -43 -123 -77 -164 -13 -16 -23 -35 -23 -43 0 -7 -14 -42 -30
-76 -31 -63 -32 -88 -7 -88 20 0 43 30 57 75 19 65 42 109 62 124 14 9 18 20
14 36 -8 32 16 51 38 30 22 -22 20 -53 -5 -100 -11 -22 -30 -65 -41 -95 -11
-30 -25 -61 -30 -67 -6 -7 -7 -32 -4 -58 l7 -45 -30 0 c-39 0 -41 -21 -6 -86
14 -26 25 -54 25 -63 0 -9 9 -27 19 -40 l19 -24 53 16 c30 9 78 19 107 23 29
4 55 11 58 15 3 5 16 9 30 9 26 0 55 15 114 61 19 14 54 30 78 34 25 4 42 12
42 20 0 22 -16 26 -46 10 -16 -8 -43 -15 -61 -15 -17 0 -33 -4 -35 -10 -8 -25
-115 -52 -223 -57 -128 -5 -146 2 -119 42 9 15 28 31 41 36 35 13 131 11 171
-3 28 -11 38 -10 62 4 16 9 38 14 49 11 11 -3 32 4 49 17 24 18 39 21 66 17
l36 -6 0 62 c0 34 -5 80 -11 102 -6 22 -13 67 -17 100 -7 60 -7 60 -37 56 -17
-3 -84 -5 -150 -5 -107 -1 -120 1 -123 17 -7 37 122 61 230 43 60 -10 66 0 50
98 -17 104 -27 376 -15 376 17 0 66 -135 134 -366 29 -99 31 -101 64 -75 15
11 33 21 40 21 7 0 18 6 24 14 8 9 28 14 54 13 35 -2 44 -7 55 -29 7 -16 21
-28 31 -28 10 0 40 -16 67 -35 48 -34 84 -45 84 -25 0 5 13 7 29 4 25 -5 30
-3 33 17 2 18 13 27 43 37 22 7 46 19 55 26 13 12 76 31 137 41 36 5 43 14 43
52 0 39 -12 83 -41 148 -10 22 -21 52 -24 67 -6 24 -4 28 14 28 12 0 21 5 21
10 0 6 7 10 15 10 8 0 15 -8 15 -17 0 -9 5 -33 11 -52 6 -20 15 -52 21 -71 6
-19 24 -64 40 -99 l30 -63 47 45 c31 30 58 47 81 50 19 3 66 12 104 19 l70 13
-3 65 c-1 36 -6 69 -11 73 -4 5 -41 2 -81 -6 -112 -24 -249 -31 -249 -14 0 21
24 49 40 45 11 -2 14 5 12 25 -2 16 3 29 10 31 7 2 36 10 63 19 28 9 76 19
108 23 68 8 81 23 73 87 -3 23 -10 80 -16 127 -25 215 -85 463 -113 468 -10 2
-17 -1 -17 -6 0 -18 -101 -53 -163 -57 -34 -2 -70 -6 -79 -10 -13 -5 -21 2
-35 31 -23 47 -46 63 -70 48 -36 -22 -28 -62 24 -117 27 -29 60 -74 72 -100
20 -41 27 -48 45 -42 11 4 46 10 77 15 30 4 65 13 78 19 12 7 39 11 59 9 l37
-3 -35 -19 c-19 -11 -55 -21 -78 -23 -24 -2 -52 -8 -62 -13 -10 -6 -32 -10
-49 -10 -16 0 -41 -4 -55 -9 -21 -9 -28 -6 -51 25 -15 19 -49 80 -77 135 l-51
100 21 42 c16 34 19 51 13 90 -7 42 -6 47 8 40 9 -4 33 -7 54 -6 34 1 39 -3
64 -45 15 -26 32 -51 38 -55 23 -18 190 11 207 37 13 19 8 69 -15 136 -24 72
-15 67 -117 54 -38 -5 -50 -1 -80 20 -57 42 -96 56 -131 49 l-32 -6 7 43 c4
24 9 47 13 52 10 17 75 -3 115 -34 27 -23 54 -33 95 -39 31 -4 61 -5 66 -2 15
9 -15 113 -74 248 -4 11 -13 39 -19 62 -11 45 -7 43 -111 57 -20 2 -53 1 -72
-4 -20 -4 -38 -6 -41 -3 -6 7 14 65 28 81 12 12 83 18 116 11 22 -6 25 56 5
88 -16 24 -20 25 -103 21 -57 -2 -87 -7 -90 -16 -2 -6 -10 -12 -18 -12 -11 0
-14 10 -12 38 3 37 3 37 -32 35 -19 -2 -71 -10 -115 -18 -44 -8 -105 -17 -137
-19 -31 -2 -61 -7 -67 -10 -6 -4 -11 -24 -11 -45 0 -43 -13 -51 -82 -51 -39 0
-58 19 -58 57 0 10 -11 39 -25 65 -28 53 -32 110 -10 148 8 14 14 37 15 52 0
15 4 30 10 33 5 3 14 23 20 44 5 21 21 50 35 65 36 39 52 74 60 131 10 65 37
117 69 135 18 9 26 22 26 41 0 15 7 29 16 33 12 5 14 14 9 46 -9 53 0 75 36
91 18 7 45 34 66 65 19 29 46 60 59 69 13 8 24 20 24 25 0 5 13 29 30 53 16
25 30 48 30 53 0 4 19 32 42 62 50 67 95 183 107 273 5 38 5 115 0 180 -5 63
-9 180 -9 261 0 82 -3 155 -6 163 -17 42 -113 58 -165 28 -23 -14 -31 -15 -41
-5 -19 19 -16 185 4 267 22 86 39 166 78 360 17 83 35 166 41 186 5 20 15 117
23 215 14 178 14 348 -1 579 -10 157 -6 283 9 320 7 17 25 52 41 79 33 58 30
76 -16 76 l-34 0 2 189 3 188 -40 47 c-25 29 -48 46 -62 46 -13 0 -41 18 -68
45 -39 38 -52 45 -86 45 -36 0 -40 3 -46 31 -3 17 -6 63 -6 101 0 62 3 72 26
93 15 14 35 25 45 25 24 0 33 18 18 36 -8 10 -22 13 -45 8 -22 -4 -42 -1 -57
8 -12 8 -48 17 -79 21 -54 5 -59 4 -112 -34 -30 -21 -61 -39 -70 -39 -8 0 -32
20 -53 45 -34 40 -39 54 -43 113 -5 55 -11 75 -35 105 -17 20 -37 37 -46 37
-29 0 -67 53 -74 103 -4 26 -15 58 -25 70 l-18 22 -11 -27 c-15 -39 -69 -48
-108 -19 -27 21 -31 21 -66 6 -20 -8 -55 -15 -77 -15 -45 0 -94 -21 -108 -46
-13 -23 -29 -10 -37 29 -20 99 -23 104 -79 136 -38 21 -59 41 -72 68 -16 32
-24 38 -54 41 -22 1 -47 -5 -67 -19z m-1723 -575 c0 -8 -5 -12 -10 -9 -6 4 -8
11 -5 16 9 14 15 11 15 -7z m1339 -648 c68 -10 100 -11 117 -4 18 8 29 7 46
-4 35 -23 70 -28 234 -32 165 -5 210 -17 216 -58 3 -26 38 -38 38 -14 0 9 5
16 10 16 6 0 13 0 18 1 4 0 9 -10 12 -22 5 -18 13 -24 43 -25 60 -4 92 -24 95
-62 3 -31 24 -44 37 -22 3 6 15 10 25 10 17 0 19 -5 13 -32 -3 -18 -7 -35 -9
-37 -2 -2 1 -10 7 -17 13 -16 -5 -54 -27 -54 -8 0 -13 4 -9 9 6 11 -13 26 -22
17 -4 -3 1 -14 9 -23 9 -10 19 -28 22 -40 12 -38 32 -26 27 15 -1 7 5 15 14
18 8 3 15 15 15 25 0 20 8 23 34 13 14 -5 13 -8 -4 -23 -30 -24 -39 -111 -15
-147 16 -25 16 -28 1 -36 -13 -7 -14 -13 -5 -29 5 -11 8 -25 6 -32 -2 -7 3
-17 12 -24 14 -10 12 -13 -12 -24 -35 -16 -34 -25 4 -38 l32 -11 -46 -45 c-63
-60 -112 -58 -112 5 0 18 -5 25 -20 25 -32 0 -27 -47 8 -63 32 -15 35 -42 8
-66 -25 -23 -41 -13 -41 25 0 17 -5 29 -13 29 -22 0 -26 -10 -16 -38 7 -18 6
-35 -2 -54 -9 -22 -9 -32 0 -41 9 -9 17 -5 35 17 14 18 25 25 29 19 11 -18 -3
-43 -24 -43 -14 0 -19 -7 -19 -29 0 -18 -8 -34 -22 -44 -22 -16 -22 -16 20
-16 36 -1 42 2 42 19 0 11 5 20 10 20 6 0 19 -9 30 -20 11 -11 25 -20 30 -20
6 0 10 -4 10 -9 0 -5 8 -12 18 -15 60 -23 64 -29 78 -143 6 -43 20 -53 42 -31
9 9 12 8 12 -4 0 -9 6 -18 13 -21 9 -3 9 -8 -2 -21 -19 -23 -4 -36 44 -40 27
-3 41 -9 46 -23 10 -27 36 -47 44 -33 3 5 15 10 25 10 11 0 25 10 31 22 l12
23 11 -24 c8 -18 7 -26 -5 -35 -8 -6 -16 -27 -17 -46 -5 -46 -16 -56 -43 -36
-20 13 -26 14 -44 2 -31 -21 -97 -28 -239 -26 -102 1 -132 -2 -145 -14 -9 -9
-37 -18 -61 -20 -103 -12 -163 -38 -175 -76 -3 -11 -17 -23 -30 -26 -13 -3
-30 -13 -37 -21 -7 -8 -35 -25 -63 -38 -27 -12 -59 -32 -69 -44 -11 -12 -31
-21 -46 -21 -15 0 -38 -8 -51 -18 -13 -10 -32 -22 -42 -25 -16 -6 -17 -17 -12
-109 3 -56 8 -105 10 -108 2 -4 -3 -19 -11 -34 -7 -16 -14 -41 -14 -56 0 -15
-7 -33 -15 -40 -8 -7 -12 -17 -8 -23 3 -5 7 -27 8 -48 2 -37 45 -109 65 -109
5 0 6 -16 3 -35 -5 -30 -2 -36 21 -45 33 -12 35 -40 2 -40 -14 0 -36 4 -50 10
-22 8 -26 7 -26 -9 0 -10 8 -21 19 -24 14 -3 19 -17 23 -71 4 -51 12 -74 32
-100 14 -19 26 -43 26 -54 0 -11 9 -31 20 -45 11 -14 20 -31 20 -39 0 -31 29
-92 51 -109 17 -13 20 -19 8 -19 -8 0 -28 -13 -44 -30 -36 -38 -55 -37 -80 1
-11 17 -32 38 -47 47 -24 14 -34 15 -75 4 -26 -7 -52 -20 -56 -28 -4 -8 -15
-14 -23 -14 -8 0 -27 -9 -42 -19 -36 -26 -64 -28 -141 -11 -48 11 -65 20 -71
36 -12 31 -85 39 -122 13 -15 -11 -33 -19 -40 -19 -7 0 -26 -7 -41 -15 -22
-11 -39 -13 -70 -5 -23 5 -60 12 -82 15 -35 6 -37 8 -20 17 11 6 21 12 23 13
9 7 -13 35 -29 35 -14 0 -19 -7 -19 -30 0 -16 -5 -30 -10 -30 -15 0 -2 -146
15 -185 8 -17 31 -44 52 -61 34 -27 44 -29 106 -28 59 2 73 6 96 28 23 22 36
26 87 26 49 0 63 -4 82 -24 12 -13 22 -31 22 -40 0 -23 47 -51 63 -38 11 9 58
22 163 45 22 5 93 -71 100 -108 6 -35 6 -35 -20 -25 -21 7 -26 7 -26 -5 0 -29
-42 -95 -60 -95 -10 0 -20 -6 -23 -14 -6 -15 10 -36 28 -36 15 0 75 -113 75
-143 0 -22 -5 -25 -47 -31 -50 -7 -104 -21 -138 -36 -42 -18 -79 -17 -138 5
-106 39 -121 46 -139 62 -12 11 -29 14 -60 10 -73 -9 -151 -25 -202 -41 -27
-9 -59 -13 -73 -10 -15 4 -28 1 -36 -9 -7 -8 -36 -17 -65 -20 l-54 -6 3 42 c4
66 0 87 -16 87 -11 0 -13 7 -9 29 9 44 -14 51 -46 13 -15 -18 -36 -32 -48 -32
-12 0 -29 -11 -38 -25 -9 -15 -26 -25 -39 -25 -17 0 -29 -11 -44 -40 -12 -22
-21 -47 -21 -55 0 -9 -9 -15 -21 -15 -12 0 -23 -8 -26 -20 -4 -16 -11 -19 -32
-14 -14 4 -30 10 -35 15 -14 13 -18 100 -4 116 10 12 6 19 -21 40 -27 21 -31
30 -26 53 6 29 -6 44 -35 45 -17 0 -27 35 -11 35 17 0 13 27 -5 34 -8 3 -12
11 -8 17 3 6 -3 23 -14 38 -14 19 -17 32 -11 42 5 8 9 19 9 26 0 15 -53 33
-79 26 -15 -4 -21 -1 -21 11 0 9 8 16 20 16 28 0 36 41 15 74 -9 14 -14 29
-11 34 8 14 -47 22 -62 10 -9 -8 -16 -8 -24 0 -8 8 -4 13 16 18 35 8 33 18 -8
42 -31 18 -35 19 -35 4 -1 -32 -4 -52 -8 -52 -11 0 -52 57 -53 73 0 24 -17 21
-52 -8 -32 -27 -48 -32 -48 -14 0 16 59 68 63 56 2 -7 9 -7 21 0 13 7 15 13 7
17 -16 10 -13 64 4 73 13 8 14 14 2 48 -16 45 -45 59 -54 26 -3 -12 -13 -21
-23 -21 -15 0 -17 8 -13 73 4 55 10 76 24 87 15 12 17 18 7 28 -15 15 -55 16
-60 0 -2 -6 -10 -8 -16 -4 -9 5 -6 12 9 25 15 12 22 31 25 69 2 29 -1 52 -6
52 -5 0 -16 7 -24 16 -21 20 -21 64 -1 64 19 0 19 5 -1 35 -14 21 -14 27 -1
45 10 14 13 35 10 61 -3 23 -1 45 6 53 14 16 4 43 -23 66 -20 16 -20 30 -1 30
8 0 17 14 20 33 6 33 44 92 45 70 0 -7 7 -13 15 -13 8 0 25 -10 36 -21 18 -18
25 -20 40 -10 10 6 27 11 36 11 10 0 30 6 45 14 20 11 113 36 132 36 2 0 9
-15 16 -32 21 -53 49 -78 87 -78 26 0 33 4 33 19 0 32 20 35 50 6 24 -23 79
-44 118 -45 20 0 14 16 -10 27 -42 19 -128 96 -128 114 0 18 57 59 81 59 8 0
28 -25 44 -56 17 -31 47 -71 68 -89 36 -31 39 -37 40 -89 1 -45 4 -56 17 -55
8 1 23 -1 32 -5 10 -5 35 -4 55 1 36 8 38 11 38 48 0 39 1 40 35 38 19 0 83
-3 143 -6 127 -6 163 -21 152 -65 -4 -15 -13 -34 -21 -43 -16 -18 -19 -38 -3
-22 8 8 19 7 41 -1 24 -8 32 -8 35 1 3 9 12 9 30 2 28 -10 43 0 43 32 0 8 7
24 15 35 8 10 15 29 15 42 0 12 7 33 15 45 8 12 14 31 14 42 0 43 21 129 33
137 7 4 21 8 31 8 11 0 17 8 17 21 0 11 7 35 16 52 31 59 34 67 34 86 0 10 -7
21 -15 25 -22 8 -18 28 4 21 26 -8 36 11 17 31 -24 23 -37 51 -31 66 4 9 -10
22 -35 36 l-42 22 7 -30 c6 -27 4 -30 -17 -30 -19 0 -30 10 -46 44 -12 24 -22
48 -22 55 0 6 -6 11 -12 11 -7 1 -29 24 -48 53 -36 53 -96 95 -139 96 -20 1
-68 22 -172 77 -17 9 -39 11 -59 8 -24 -5 -39 -1 -62 16 -16 12 -53 25 -81 29
-54 8 -157 54 -157 71 0 14 -43 13 -77 -2 -35 -15 -83 -58 -83 -75 0 -17 -55
-44 -75 -37 -27 11 -96 -17 -105 -42 -6 -16 -25 -27 -65 -39 -42 -12 -54 -19
-47 -28 14 -17 4 -63 -19 -83 -10 -9 -19 -23 -19 -31 0 -7 -4 -13 -10 -13 -5
0 -10 7 -10 15 0 7 -7 18 -16 23 -15 8 -13 12 12 24 20 9 28 20 26 33 -7 37
-2 90 9 94 6 2 22 13 37 26 21 18 24 25 14 37 -10 12 -4 18 32 36 40 21 44 26
50 72 4 27 11 52 17 56 6 3 8 15 6 26 -3 11 -2 28 3 37 5 9 11 24 14 34 7 21
42 15 64 -12 9 -11 15 -12 18 -4 3 6 21 23 40 38 28 21 38 24 49 15 22 -18 35
-3 28 33 l-6 32 25 -22 c31 -29 40 -29 55 3 15 31 7 50 -12 34 -11 -9 -16 -6
-21 15 -8 34 2 44 20 19 14 -18 15 -18 25 9 8 21 17 27 40 27 36 0 46 13 31
40 -9 17 -8 20 10 20 11 0 20 -4 20 -10 0 -5 7 -10 15 -10 17 0 18 5 6 29 -11
20 2 47 18 36 7 -3 9 -15 6 -26 -8 -26 11 -24 25 2 15 28 -4 51 -36 43 -18 -5
-27 0 -43 26 -23 39 -18 59 18 66 63 13 100 80 60 108 -12 8 -28 12 -35 9 -8
-3 -14 1 -14 11 0 9 6 16 14 16 10 0 12 16 10 65 -2 51 0 65 11 65 16 0 25
-30 22 -70 -1 -16 4 -26 16 -28 14 -3 17 4 17 47 0 27 5 53 10 56 16 10 12 35
-6 35 -12 0 -8 10 16 36 23 27 29 39 21 47 -9 9 -17 8 -31 -1 -23 -14 -37 2
-20 23 7 8 10 22 6 30 -6 17 -36 21 -36 5 0 -15 -19 -12 -37 5 -19 19 -45 2
-36 -22 5 -13 1 -15 -23 -9 -47 12 -58 26 -38 47 10 11 25 19 35 19 10 0 33 9
51 19 33 20 128 39 226 46 53 4 62 -1 40 -23 -14 -14 -15 -13 74 -14 58 -1 72
3 114 31 29 18 55 29 64 25 8 -3 41 -7 72 -8 44 -1 58 3 60 14 2 10 24 19 63
26 83 16 135 16 244 0z m-937 -198 c-6 -6 -15 -8 -19 -4 -4 4 -1 11 7 16 19
12 27 3 12 -12z m1878 -18 c0 -5 -2 -10 -4 -10 -3 0 -8 5 -11 10 -3 6 -1 10 4
10 6 0 11 -4 11 -10z m-1840 -16 c0 -2 -9 -4 -21 -4 -11 0 -18 4 -14 10 5 8
35 3 35 -6z m1910 -193 c0 -5 -7 -14 -15 -21 -12 -10 -15 -10 -15 2 0 8 3 18
7 21 9 10 23 9 23 -2z m28 -178 c-5 -25 -28 -28 -28 -4 0 12 6 21 16 21 9 0
14 -7 12 -17z m-78 -176 c0 -14 -20 -37 -32 -37 -4 0 -2 11 4 25 12 27 28 34
28 12z m-2270 -172 c0 -8 -7 -15 -15 -15 -16 0 -20 12 -8 23 11 12 23 8 23 -8z
m-120 -105 c0 -5 -2 -10 -4 -10 -3 0 -8 5 -11 10 -3 6 -1 10 4 10 6 0 11 -4
11 -10z m2700 -330 c0 -5 -4 -10 -10 -10 -5 0 -10 5 -10 10 0 6 5 10 10 10 6
0 10 -4 10 -10z m85 -57 c9 -30 -20 -31 -36 -2 -9 17 -8 23 2 30 16 10 24 3
34 -28z m-2323 -57 c15 -11 27 -27 27 -33 1 -7 14 -25 31 -39 32 -29 31 -44
-1 -44 -15 0 -19 -6 -17 -22 3 -21 -2 -23 -67 -29 -62 -6 -75 -4 -111 17 -22
12 -52 24 -65 26 -13 2 -29 7 -36 11 -7 4 -21 2 -33 -5 -17 -11 -22 -10 -36
10 -14 20 -23 23 -63 20 -44 -3 -46 -2 -43 22 2 14 9 31 15 38 8 10 7 16 -4
23 -17 11 -30 9 131 16 74 2 142 9 150 14 22 13 91 -1 122 -25z m2432 -5 c10
-11 25 -16 40 -14 33 7 42 -15 12 -28 -21 -10 -29 -8 -55 12 -28 23 -41 49
-23 49 5 0 16 -8 26 -19z m160 -155 c26 -55 34 -106 17 -106 -5 0 -12 19 -16
42 -4 24 -17 50 -31 63 -27 25 -30 41 -11 48 6 3 13 6 14 6 1 1 13 -23 27 -53z
m-2550 -92 c24 -9 19 -21 -15 -38 -28 -14 -33 -14 -56 1 l-25 16 24 13 c26 15
48 17 72 8z m2124 -27 c10 -7 10 -12 1 -23 -6 -7 -11 -29 -11 -48 0 -31 -3
-34 -35 -39 -20 -4 -43 -2 -52 2 -9 5 -44 12 -78 16 -50 6 -61 10 -56 22 5 13
1 15 -25 10 -27 -5 -32 -3 -32 12 0 33 17 40 155 68 39 8 105 -2 133 -20z
m-2044 -3 c9 -23 8 -24 -12 -24 -26 0 -34 11 -21 27 15 17 26 17 33 -3z m2526
-64 c0 -5 -5 -10 -11 -10 -5 0 -7 5 -4 10 3 6 8 10 11 10 2 0 4 -4 4 -10z
m-2349 -146 c7 -9 13 -32 13 -51 0 -50 -31 -73 -98 -73 -62 0 -70 5 -48 29 10
10 32 38 49 64 34 49 61 59 84 31z m293 -56 c33 -14 40 -37 26 -88 -16 -61
-35 -51 -64 34 -9 27 -16 53 -16 58 0 11 25 10 54 -4z m1176 -80 c14 -29 38
-68 54 -85 20 -24 24 -33 13 -33 -20 0 -30 -33 -22 -70 6 -27 35 -44 35 -20 0
6 11 10 25 10 18 0 26 -7 31 -25 3 -14 14 -25 23 -25 21 -1 61 -34 61 -51 0
-8 7 -3 16 9 19 27 40 28 54 3 5 -11 29 -26 52 -33 31 -11 44 -21 46 -36 2
-12 8 -23 13 -23 5 -1 15 -2 22 -3 6 -1 11 -11 9 -24 -2 -13 3 -25 12 -28 22
-8 20 -51 -1 -58 -10 -2 -4 -4 14 -3 23 1 42 -7 68 -31 20 -17 48 -32 61 -32
23 0 24 -1 10 -22 -7 -13 -16 -35 -20 -50 -5 -23 -12 -28 -35 -28 -40 0 -53
-19 -41 -60 11 -38 8 -45 -16 -36 -11 4 -14 13 -10 31 5 18 2 25 -8 25 -20 0
-31 -20 -27 -48 2 -21 0 -22 -18 -13 -31 17 -41 13 -41 -17 0 -32 -59 -97 -82
-90 -7 3 -18 -7 -25 -24 -8 -20 -22 -30 -43 -35 -18 -3 -34 -12 -37 -20 -3 -8
-13 -11 -23 -8 -26 8 -37 -15 -15 -31 24 -18 13 -64 -15 -64 -14 0 -20 -7 -20
-22 0 -19 -6 -23 -36 -25 -55 -3 -69 -10 -54 -28 7 -8 18 -15 25 -15 25 0 23
-29 -5 -67 -16 -21 -30 -46 -30 -56 0 -10 -6 -20 -14 -23 -21 -8 -27 -32 -14
-54 9 -15 9 -24 -1 -44 -8 -14 -11 -37 -8 -55 4 -17 2 -33 -2 -36 -5 -3 -7
-13 -5 -23 3 -9 -2 -34 -11 -55 -13 -33 -18 -37 -31 -26 -11 9 -12 14 -3 19
14 9 3 30 -16 30 -7 0 -15 -7 -19 -15 -9 -25 -37 -17 -49 15 -9 24 -15 28 -34
24 -17 -5 -23 -2 -23 11 0 10 -5 15 -14 12 -8 -3 -18 4 -24 18 -10 21 -95 71
-114 67 -4 -1 -12 7 -18 18 -6 11 -17 20 -25 20 -7 0 -17 9 -20 21 -4 11 -20
25 -36 31 -16 5 -29 16 -29 24 0 8 -9 14 -20 14 -23 0 -43 32 -34 54 3 9 14
16 23 16 9 0 22 10 29 21 11 17 20 20 48 16 18 -3 36 -1 40 5 3 5 17 8 30 5
24 -4 25 -2 38 55 4 15 15 32 26 38 38 21 50 72 44 188 -5 73 -11 112 -22 124
-9 11 -12 26 -8 43 4 14 3 25 -2 25 -4 0 -17 6 -27 14 -19 14 -19 15 -1 35 19
21 19 22 -24 34 -10 2 -15 17 -15 43 0 35 -3 39 -27 42 -29 3 -40 32 -13 32 8
0 15 7 15 15 0 15 -16 20 -52 17 -10 -1 -18 3 -18 8 0 13 -52 60 -66 60 -13 0
-24 22 -24 46 0 8 19 23 42 34 48 21 62 13 52 -32 -3 -16 -2 -28 2 -28 13 0
44 33 44 46 0 19 29 29 85 29 28 0 53 5 57 10 4 6 8 38 8 72 0 56 3 64 26 79
26 18 61 15 192 -12 35 -7 46 11 15 23 -10 4 -33 18 -50 31 -40 29 -45 80 -13
112 36 36 62 26 90 -32z m336 -36 c14 -8 0 -52 -16 -52 -14 0 -24 26 -16 45 6
16 15 19 32 7z m-2843 -74 c-3 -5 -12 -8 -22 -8 -21 0 -34 53 -18 69 10 10 47
-47 40 -61z m2732 -118 c3 -6 -1 -13 -10 -16 -19 -8 -30 0 -20 15 8 14 22 14
30 1z m-3043 -101 c7 -33 3 -198 -6 -206 -6 -7 -49 18 -63 36 -31 43 -23 133
18 185 26 34 41 29 51 -15z m3380 -161 c-9 -9 -12 -7 -12 12 0 19 3 21 12 12
9 -9 9 -15 0 -24z m-3702 3 c0 -6 -4 -13 -10 -16 -5 -3 -10 1 -10 9 0 9 5 16
10 16 6 0 10 -4 10 -9z m4255 -141 c3 -5 1 -10 -4 -10 -6 0 -11 5 -11 10 0 6
2 10 4 10 3 0 8 -4 11 -10z m-3585 -80 c0 -5 -4 -10 -10 -10 -5 0 -10 5 -10
10 0 6 5 10 10 10 6 0 10 -4 10 -10z m3577 -12 c-3 -8 -6 -5 -6 6 -1 11 2 17
5 13 3 -3 4 -12 1 -19z m31 -65 c-3 -30 -25 -42 -34 -19 -9 22 2 46 21 46 12
0 15 -8 13 -27z m-28 -122 c0 -6 -4 -13 -10 -16 -5 -3 -10 1 -10 9 0 9 5 16
10 16 6 0 10 -4 10 -9z m-70 -25 c0 -7 -7 -19 -15 -26 -8 -7 -15 -21 -15 -31
0 -11 -4 -19 -10 -19 -14 0 -12 22 6 58 16 33 34 42 34 18z m-780 -5 c0 -5 8
-11 18 -14 12 -3 10 -6 -11 -12 -32 -9 -42 -3 -34 20 7 16 27 21 27 6z m-958
-356 c0 -5 -5 -11 -11 -13 -6 -2 -11 4 -11 13 0 9 5 15 11 13 6 -2 11 -8 11
-13z m656 -333 c6 -18 -15 -14 -22 4 -4 10 -1 14 6 12 6 -2 14 -10 16 -16z
m-1113 -117 c55 -8 104 -20 109 -25 6 -6 26 -10 45 -10 42 0 138 -17 207 -36
28 -8 60 -14 71 -14 12 0 40 -9 64 -20 24 -11 36 -20 26 -20 -15 0 -18 -7 -15
-32 2 -28 -1 -34 -19 -36 -13 -2 -23 -7 -23 -11 0 -15 -80 -30 -217 -43 -108
-10 -136 -10 -157 1 -13 7 -29 10 -35 7 -6 -4 -20 -1 -32 7 -15 11 -37 13 -80
10 -45 -4 -64 -2 -77 9 -9 9 -35 21 -57 28 -22 7 -48 16 -57 21 -24 12 -45 11
-67 -3 -23 -14 -55 -3 -48 16 4 9 -3 16 -20 21 -19 4 -23 9 -14 18 6 6 11 21
11 33 0 12 7 27 15 34 8 7 15 19 15 26 0 9 12 14 34 14 18 0 39 6 45 14 16 18
132 15 276 -9z m-518 -31 c25 -25 25 -25 5 -44 -11 -10 -22 -25 -25 -32 -9
-26 -57 32 -57 69 0 29 3 33 25 33 14 0 37 -12 52 -26z m-71 -138 c-8 -31 3
-40 25 -20 21 19 25 13 33 -58 5 -36 3 -58 -3 -63 -6 -3 -11 2 -11 12 0 21
-29 49 -57 55 -11 2 -17 11 -15 23 2 11 3 27 4 35 1 15 16 40 25 40 3 0 3 -11
-1 -24z m231 -446 c21 6 50 15 65 20 15 4 30 4 36 -2 6 -6 67 -10 146 -10 121
1 140 -1 171 -19 19 -12 42 -19 50 -16 14 6 70 -17 80 -32 2 -5 16 -6 30 -3
15 2 36 0 48 -6 12 -6 51 -15 86 -21 35 -6 69 -16 77 -22 22 -18 18 -60 -6
-66 -11 -3 -23 -15 -26 -27 -4 -18 -11 -21 -45 -18 -22 2 -46 -1 -54 -8 -8 -7
-25 -10 -38 -6 -22 5 -97 -5 -145 -19 -18 -6 -24 -3 -29 14 -6 23 -11 25 -45
12 -13 -5 -45 -5 -73 -1 -48 8 -51 6 -84 -26 -42 -41 -108 -55 -145 -30 -17
11 -44 15 -86 13 -49 -2 -64 2 -74 16 -7 9 -18 17 -24 17 -18 0 -23 19 -11 41
10 20 9 21 -11 16 -38 -10 -80 3 -80 24 0 11 -4 19 -10 19 -5 0 -10 14 -10 30
0 23 6 33 24 40 13 5 28 15 33 23 12 20 51 39 65 31 7 -5 9 2 6 20 l-5 27 22
-21 c21 -20 27 -21 62 -10z m2076 -46 c18 -9 41 -28 53 -42 19 -23 22 -24 57
-11 30 11 40 11 62 -1 15 -8 31 -22 36 -32 9 -16 4 -18 -50 -18 -53 0 -60 -2
-63 -22 -3 -21 -3 -21 -33 4 -42 35 -86 56 -134 64 -35 6 -42 10 -39 28 3 20
40 46 66 46 7 0 27 -7 45 -16z m463 -208 c20 -33 49 -71 65 -84 32 -26 37 -42
13 -42 -9 0 -18 -9 -21 -20 -7 -26 -11 -25 -35 5 -24 31 -65 33 -102 4 -30
-24 -46 -18 -46 17 0 16 6 24 18 24 21 1 82 55 82 73 0 8 -9 22 -20 32 -11 10
-20 29 -20 41 0 38 27 18 66 -50z m-3582 -95 c6 -10 -31 -61 -44 -61 -15 0
-31 37 -24 54 7 17 59 22 68 7z m3191 -21 c3 -5 14 -10 25 -10 11 0 26 -15 37
-37 13 -25 28 -39 44 -41 13 -2 28 -8 34 -13 5 -5 38 -9 74 -9 53 0 69 -4 88
-22 36 -34 30 -52 -14 -44 -21 3 -63 9 -93 12 -91 10 -115 22 -165 79 -25 30
-54 57 -65 60 -11 4 -17 12 -13 21 6 16 39 19 48 4z m460 -90 c3 -5 1 -10 -4
-10 -6 0 -11 5 -11 10 0 6 2 10 4 10 3 0 8 -4 11 -10z m-691 -115 c5 -22 4
-26 -4 -15 -5 8 -10 24 -10 34 0 26 6 18 14 -19z m-3155 -145 c-6 -19 -17 -49
-25 -67 -8 -17 -14 -36 -14 -42 0 -6 -4 -11 -10 -11 -15 0 -12 21 10 102 11
40 20 87 20 104 0 51 14 49 22 -3 4 -28 3 -63 -3 -83z m3489 35 c39 -34 21
-41 -56 -21 -37 9 -98 19 -137 21 -38 2 -71 4 -73 5 -2 0 0 5 3 10 4 6 52 10
121 9 105 -1 117 -3 142 -24z m-346 -17 c24 -47 29 -123 7 -116 -17 6 -50 100
-44 126 7 30 17 28 37 -10z m490 -8 c41 -15 67 -19 118 -14 l65 5 18 -36 c10
-21 16 -40 13 -43 -3 -2 -40 -5 -83 -6 -127 -2 -215 37 -206 89 6 30 9 30 75
5z m26 -164 c22 -37 52 -147 52 -190 0 -38 23 -77 65 -115 29 -25 45 -32 78
-32 23 1 72 -2 109 -5 56 -5 73 -11 98 -34 16 -15 30 -38 30 -49 0 -21 -3 -21
-82 -15 -150 10 -186 21 -229 67 -21 23 -41 39 -44 35 -17 -16 60 -186 88
-197 25 -10 106 -81 91 -81 -18 0 -152 58 -191 83 -39 25 -40 27 -47 99 -18
206 -18 205 -114 254 -50 25 -71 30 -182 35 -69 4 -148 10 -176 14 -47 7 -52
6 -59 -14 -3 -11 -12 -27 -18 -33 -7 -7 -20 -30 -30 -51 -10 -23 -22 -35 -28
-31 -17 10 -4 79 20 110 12 15 21 41 21 58 0 17 9 45 19 63 l20 31 38 -19 c28
-14 58 -19 124 -19 119 0 221 -37 297 -107 14 -13 29 -20 33 -16 6 7 4 26 -17
151 -8 52 6 55 34 8z m-3810 -63 c2 -7 -3 -13 -11 -13 -9 0 -28 -8 -45 -17
-18 -10 -36 -14 -48 -9 -18 7 -17 9 11 32 32 26 85 30 93 7z m4087 -98 c0 -12
-77 -19 -122 -10 -63 11 -35 26 45 23 43 -2 77 -7 77 -13z m-4247 -75 c3 -47
1 -52 -12 -40 -20 16 -23 104 -3 98 7 -3 13 -27 15 -58z m3592 -106 c0 -8 -4
-12 -10 -9 -5 3 -10 10 -10 16 0 5 5 9 10 9 6 0 10 -7 10 -16z m180 1 c7 -8 8
-15 2 -15 -5 0 -15 7 -22 15 -7 8 -8 15 -2 15 5 0 15 -7 22 -15z m-380 -90
c15 -18 9 -50 -10 -50 -10 0 -16 12 -18 33 -3 34 8 41 28 17z m532 -2 c21 -18
23 -33 6 -33 -14 0 -48 30 -48 42 0 13 22 9 42 -9z m-3902 -59 c11 -25 20 -55
19 -67 0 -16 -5 -12 -18 18 -21 47 -34 95 -26 95 3 0 15 -21 25 -46z m3296
-18 c10 -42 1 -81 -20 -81 -14 0 -20 9 -22 33 -7 57 29 98 42 48z m32 -208
c14 -14 16 -88 3 -88 -14 0 -19 12 -27 58 -7 42 2 52 24 30z m787 2 c19 -7 25
-15 21 -26 -4 -9 -1 -32 6 -50 15 -43 9 -48 -31 -28 -23 12 -45 14 -77 9 l-44
-6 0 36 c0 57 15 75 60 75 21 0 51 -5 65 -10z m190 -110 c-3 -5 -17 -10 -31
-10 -14 0 -22 4 -19 10 3 6 17 10 31 10 14 0 22 -4 19 -10z m-4221 -158 c46
-56 49 -82 5 -50 -30 22 -59 65 -59 88 0 19 16 8 54 -38z m2516 -12 c0 -5 -5
-10 -11 -10 -5 0 -7 5 -4 10 3 6 8 10 11 10 2 0 4 -4 4 -10z m73 -40 c-3 -11
-9 -20 -13 -20 -5 0 -17 -3 -27 -6 -11 -3 -14 -2 -7 3 6 4 13 16 17 26 9 25
37 22 30 -3z m-76 -16 c-3 -3 -12 -4 -19 -1 -8 3 -5 6 6 6 11 1 17 -2 13 -5z
m893 -225 c0 -30 -219 -64 -295 -45 -52 13 -9 29 87 33 76 3 195 16 206 22 1
0 2 -4 2 -10z"/>
<path d="M6380 10066 c0 -9 5 -16 10 -16 6 0 10 4 10 9 0 6 -4 13 -10 16 -5 3
-10 -1 -10 -9z"/>
<path d="M6428 9713 c7 -3 16 -2 19 1 4 3 -2 6 -13 5 -11 0 -14 -3 -6 -6z"/>
<path d="M6400 9665 c0 -8 5 -15 10 -15 6 0 10 7 10 15 0 8 -4 15 -10 15 -5 0
-10 -7 -10 -15z"/>
<path d="M6401 9622 c-11 -21 -6 -52 9 -52 4 0 11 12 14 26 9 35 -8 53 -23 26z"/>
<path d="M6250 9609 c0 -5 5 -7 10 -4 6 3 10 8 10 11 0 2 -4 4 -10 4 -5 0 -10
-5 -10 -11z"/>
<path d="M4500 9420 c0 -5 5 -10 10 -10 6 0 10 5 10 10 0 6 -4 10 -10 10 -5 0
-10 -4 -10 -10z"/>
<path d="M6431 9251 c-6 -10 -7 -21 -4 -25 9 -8 33 14 33 30 0 20 -18 17 -29
-5z"/>
<path d="M5524 8685 c-4 -8 -12 -15 -19 -15 -7 0 -18 -7 -25 -15 -15 -18 1
-21 29 -6 16 9 18 4 19 -41 0 -27 4 -53 7 -57 7 -6 31 21 38 43 2 6 18 9 35 8
27 -2 32 1 32 20 0 17 -13 30 -50 51 -58 32 -59 32 -66 12z"/>
<path d="M5616 8535 c-3 -9 0 -15 9 -15 8 0 15 7 15 15 0 8 -4 15 -9 15 -5 0
-11 -7 -15 -15z"/>
<path d="M5341 8197 c-16 -21 -3 -79 18 -75 11 2 16 14 16 42 0 42 -14 56 -34
33z"/>
<path d="M4006 7355 c4 -8 8 -15 10 -15 2 0 4 7 4 15 0 8 -4 15 -10 15 -5 0
-7 -7 -4 -15z"/>
<path d="M4140 7316 c0 -9 5 -16 10 -16 6 0 10 4 10 9 0 6 -4 13 -10 16 -5 3
-10 -1 -10 -9z"/>
<path d="M4180 7195 c0 -8 5 -15 10 -15 6 0 10 7 10 15 0 8 -4 15 -10 15 -5 0
-10 -7 -10 -15z"/>
<path d="M4180 7140 c0 -5 7 -10 16 -10 8 0 12 5 9 10 -3 6 -10 10 -16 10 -5
0 -9 -4 -9 -10z"/>
<path d="M5156 7037 c-18 -13 -18 -17 -4 -73 15 -58 15 -59 27 -31 6 16 11 39
11 52 0 15 7 26 21 30 11 4 18 12 16 18 -5 18 -49 20 -71 4z"/>
<path d="M5272 6948 c-1 -35 1 -71 4 -80 5 -16 7 -16 30 -2 30 20 31 57 2 77
-20 13 -21 18 -11 35 12 21 8 32 -12 32 -7 0 -12 -23 -13 -62z"/>
<path d="M5510 7000 c0 -5 7 -10 16 -10 8 0 12 5 9 10 -3 6 -10 10 -16 10 -5
0 -9 -4 -9 -10z"/>
<path d="M5020 6988 c-36 -5 -68 -12 -72 -16 -10 -11 -12 -54 -3 -89 7 -31 10
-33 52 -33 33 0 54 7 79 27 32 24 35 30 32 71 -2 25 -7 46 -13 47 -5 2 -39 -2
-75 -7z"/>
<path d="M4859 6906 c9 -11 9 -20 2 -35 -6 -11 -11 -32 -11 -46 0 -22 4 -26
22 -23 18 2 24 12 30 48 10 57 5 70 -28 70 -22 0 -24 -2 -15 -14z"/>
<path d="M4750 6856 c0 -13 -3 -37 -6 -55 l-6 -31 31 16 c35 17 42 52 15 78
-22 23 -34 20 -34 -8z"/>
<path d="M4317 6853 c-12 -11 -8 -23 8 -23 8 0 15 7 15 15 0 16 -12 20 -23 8z"/>
<path d="M5317 6793 c-12 -11 -8 -21 13 -26 22 -6 23 -5 14 17 -7 17 -16 20
-27 9z"/>
<path d="M6635 7800 c-4 -6 5 -10 19 -10 14 0 26 5 26 10 0 6 -9 10 -19 10
-11 0 -23 -4 -26 -10z"/>
<path d="M5885 7790 c-3 -5 -1 -10 4 -10 6 0 11 5 11 10 0 6 -2 10 -4 10 -3 0
-8 -4 -11 -10z"/>
<path d="M6670 7481 c0 -5 7 -11 15 -15 9 -3 15 0 15 9 0 8 -7 15 -15 15 -8 0
-15 -4 -15 -9z"/>
<path d="M6410 7191 c0 -25 20 -38 31 -20 15 23 10 39 -11 39 -13 0 -20 -7
-20 -19z"/>
<path d="M6360 7141 c0 -18 18 -21 30 -6 10 13 9 15 -9 15 -11 0 -21 -4 -21
-9z"/>
<path d="M6230 7125 c0 -8 4 -15 9 -15 5 0 11 7 15 15 3 9 0 15 -9 15 -8 0
-15 -7 -15 -15z"/>
<path d="M6320 7020 c0 -5 5 -10 10 -10 6 0 10 5 10 10 0 6 -4 10 -10 10 -5 0
-10 -4 -10 -10z"/>
<path d="M5980 6845 c0 -9 5 -15 11 -13 6 2 11 8 11 13 0 5 -5 11 -11 13 -6 2
-11 -4 -11 -13z"/>
<path d="M3317 8463 c-12 -11 -8 -25 6 -20 6 2 29 -7 49 -20 36 -22 118 -33
118 -15 -2 31 -150 79 -173 55z"/>
<path d="M3330 7565 c-20 -24 -6 -28 15 -5 10 11 13 20 8 20 -6 0 -16 -7 -23
-15z"/>
<path d="M7825 5913 c4 -10 10 -26 12 -35 5 -19 28 -24 37 -10 5 8 -39 62 -50
62 -4 0 -3 -8 1 -17z"/>
<path d="M7880 5808 c-13 -5 -26 -10 -28 -12 -1 -2 2 -55 8 -117 16 -159 36
-200 68 -136 8 17 26 31 53 38 36 11 41 10 62 -9 34 -32 48 -28 40 11 -9 51
-42 117 -58 117 -8 0 -16 6 -16 13 -3 28 -5 33 -20 54 -22 32 -78 53 -109 41z"/>
<path d="M8050 5708 c0 -7 23 -40 50 -73 28 -33 50 -68 50 -78 0 -24 44 -115
73 -150 l23 -27 47 16 c26 9 47 21 47 27 0 6 -12 43 -26 83 -31 87 -29 118 6
122 30 3 120 43 120 52 0 24 -36 30 -171 27 -79 -1 -161 2 -181 6 -29 6 -38 5
-38 -5z"/>
<path d="M8550 5643 c-8 -3 -43 -19 -77 -34 -34 -16 -74 -29 -88 -29 -19 0
-25 -5 -25 -22 0 -13 7 -32 15 -42 14 -18 16 -18 33 -3 25 22 60 21 96 -2 17
-11 34 -17 38 -14 5 2 6 29 2 59 -4 35 -3 54 4 54 27 0 70 -24 99 -57 27 -29
36 -33 48 -23 14 12 44 10 143 -7 28 -5 32 -3 32 17 0 21 -3 22 -39 16 -29 -4
-40 -2 -45 9 -3 8 -13 15 -22 15 -9 0 -29 11 -45 24 -37 32 -130 53 -169 39z"/>
<path d="M9676 5565 c16 -14 32 -25 36 -25 3 0 13 -3 22 -6 10 -4 16 -1 16 9
0 26 -30 47 -67 47 l-36 0 29 -25z"/>
<path d="M9460 5561 c0 -11 10 -41 22 -68 11 -26 22 -64 24 -83 1 -19 12 -73
24 -120 19 -72 20 -92 11 -133 -11 -49 -1 -94 19 -82 5 3 19 -6 32 -20 28 -32
39 -32 65 4 12 15 38 37 58 47 43 23 47 37 14 46 -84 23 -83 22 -96 68 -11 38
-11 51 2 82 14 36 14 38 -12 57 -14 12 -32 21 -39 21 -17 0 -44 28 -44 46 0
19 49 18 56 -1 5 -11 10 -13 19 -5 7 6 25 8 39 4 25 -6 66 16 66 36 0 4 -21
15 -47 25 -27 10 -61 29 -78 43 -60 50 -135 68 -135 33z"/>
<path d="M8920 5540 c0 -5 4 -10 9 -10 6 0 13 5 16 10 3 6 -1 10 -9 10 -9 0
-16 -4 -16 -10z"/>
<path d="M9030 5469 c-52 -22 -115 -47 -140 -55 -77 -27 -79 -35 -27 -91 l46
-48 13 33 c10 26 18 32 43 32 16 0 50 -12 75 -27 48 -28 93 -36 203 -36 58 0
67 -2 67 -18 0 -23 -44 -46 -109 -59 -43 -8 -58 -6 -113 17 -68 27 -169 55
-177 48 -2 -3 5 -31 15 -62 15 -47 19 -88 19 -213 0 -123 4 -163 17 -192 18
-40 35 -48 45 -23 6 17 65 45 93 45 24 0 50 -42 50 -79 0 -36 -19 -49 -85 -57
-41 -6 -45 -9 -45 -34 0 -15 7 -42 16 -59 9 -18 18 -46 19 -62 3 -40 19 -41
23 -2 3 29 7 32 45 37 47 6 184 18 207 18 20 1 41 18 35 28 -3 5 6 21 19 37
18 20 33 28 58 28 l33 0 -2 114 c-3 193 -12 208 -92 155 -22 -14 -61 -32 -87
-40 -26 -8 -56 -22 -66 -31 -17 -15 -20 -15 -34 -1 -13 13 -14 23 -6 49 6 19
13 46 16 61 4 15 17 35 30 43 40 26 128 55 168 55 37 0 38 1 38 37 0 20 -4 50
-10 67 -39 124 -53 178 -58 226 -9 92 -14 95 -139 98 -106 2 -110 1 -203 -39z"/>
<path d="M7933 5479 c-27 -8 -33 -15 -33 -37 0 -37 26 -130 41 -148 10 -13 14
-12 30 2 11 10 19 25 19 34 0 58 85 38 159 -38 20 -20 25 -22 32 -10 19 33
-29 133 -85 177 -31 25 -48 31 -85 30 -25 0 -61 -5 -78 -10z"/>
<path d="M8775 5450 c-18 -7 -19 -8 -2 -15 22 -9 87 3 87 15 0 12 -57 12 -85
0z"/>
<path d="M8437 5405 c21 -36 33 -40 110 -38 79 2 96 10 68 33 -19 16 -187 21
-178 5z"/>
<path d="M9866 5379 c-71 -30 -136 -73 -136 -90 0 -5 17 -9 38 -9 20 0 55 -9
76 -21 34 -18 40 -19 55 -5 27 25 134 76 159 76 34 0 27 15 -20 43 -67 38 -94
39 -172 6z"/>
<path d="M8315 5367 c-17 -18 -39 -37 -49 -42 -18 -10 -18 -12 -2 -43 17 -34
49 -43 63 -18 4 7 22 21 40 30 29 15 31 18 23 47 -9 32 -28 59 -39 58 -3 0
-20 -14 -36 -32z"/>
<path d="M8650 5320 c-8 -5 -32 -7 -52 -3 -83 13 -109 -17 -66 -73 13 -15 31
-51 41 -79 26 -69 90 -258 113 -330 17 -53 22 -60 45 -61 15 -1 40 -11 57 -23
17 -12 33 -17 36 -12 3 4 6 62 7 127 0 107 -2 128 -30 213 -17 52 -40 110 -51
128 -11 19 -20 42 -20 52 0 22 -37 71 -53 71 -7 0 -19 -5 -27 -10z m39 -67
c23 -15 23 -17 6 -30 -26 -18 -105 -18 -105 2 0 14 44 44 65 45 6 0 21 -7 34
-17z"/>
<path d="M8010 5247 c-55 -27 -59 -47 -30 -132 11 -33 27 -107 35 -165 8 -58
20 -139 26 -180 6 -41 14 -95 18 -119 3 -25 11 -46 18 -48 13 -5 43 46 43 72
0 13 3 13 21 3 18 -12 23 -9 48 18 24 27 29 29 38 15 8 -13 14 -14 35 -4 14 6
35 9 47 6 19 -5 21 -1 21 48 0 29 -4 66 -10 83 -5 17 -19 72 -31 121 -11 50
-28 119 -36 155 -16 65 -36 100 -58 100 -7 0 -38 11 -69 25 -31 14 -60 25 -64
25 -4 0 -27 -10 -52 -23z m208 -126 c4 -11 -3 -13 -32 -8 -36 6 -98 -12 -111
-33 -10 -16 -25 -11 -25 9 0 37 156 67 168 32z"/>
<path d="M8412 5236 c-7 -16 -25 -29 -52 -37 -32 -10 -40 -17 -40 -35 0 -25
18 -106 30 -139 20 -50 30 -86 45 -160 10 -44 20 -91 24 -105 11 -36 35 -32
39 8 3 31 5 32 49 32 34 0 49 -5 63 -22 15 -18 21 -20 31 -11 10 10 10 23 0
65 -33 134 -79 266 -137 396 -18 38 -37 41 -52 8z"/>
<path d="M10440 5232 c0 -12 154 -132 169 -132 17 0 13 7 -23 44 -66 65 -146
114 -146 88z"/>
<path d="M10220 5223 c-34 -5 -172 -54 -187 -66 -20 -15 -15 -25 17 -32 17 -4
54 -26 83 -49 28 -24 62 -48 73 -54 19 -10 22 -8 28 19 6 33 61 72 105 74 14
1 44 2 66 3 l40 2 -57 55 c-59 58 -77 63 -168 48z m75 -62 c6 -11 -1 -16 -37
-25 -21 -5 -28 -3 -28 8 0 8 10 17 23 19 12 2 25 5 29 6 4 0 9 -3 13 -8z"/>
<path d="M10650 5041 c0 -6 24 -38 53 -71 28 -34 61 -76 72 -94 11 -18 31 -47
45 -66 26 -36 35 -52 82 -137 34 -63 53 -78 93 -74 18 1 36 -2 40 -8 3 -6 13
-11 21 -11 27 0 14 35 -33 92 -27 31 -82 97 -123 146 -41 49 -93 112 -114 140
-48 62 -136 115 -136 83z"/>
<path d="M9868 5032 c-1 -4 -54 -54 -116 -111 -110 -101 -142 -118 -142 -73 0
84 -45 -55 -57 -178 -6 -61 -5 -64 11 -51 15 13 22 10 62 -32 50 -52 69 -60
60 -23 -5 19 0 29 20 45 15 12 31 21 36 21 13 0 61 38 128 99 30 28 59 51 65
51 6 0 30 27 53 60 38 54 46 60 77 60 39 0 46 17 18 43 -25 22 -175 97 -195
97 -9 0 -18 -4 -20 -8z"/>
<path d="M10445 5005 c-44 -12 -96 -28 -115 -35 -19 -7 -41 -14 -47 -16 -23
-6 -1 -33 62 -79 86 -61 161 -167 180 -255 13 -59 46 -112 66 -107 10 3 23 -1
30 -9 15 -19 35 -18 43 2 5 14 15 15 57 10 51 -7 51 -7 45 18 -6 24 -4 26 24
26 23 0 30 4 30 20 0 23 29 27 48 8 31 -31 -4 46 -70 154 -80 131 -218 289
-252 287 -11 -1 -57 -11 -101 -24z"/>
<path d="M3185 4980 c-3 -5 1 -10 9 -10 9 0 16 5 16 10 0 6 -4 10 -9 10 -6 0
-13 -4 -16 -10z"/>
<path d="M10095 4788 c-68 -78 -151 -153 -258 -231 -29 -21 -60 -46 -70 -56
-17 -17 -18 -20 -3 -32 9 -8 36 -34 59 -58 23 -24 78 -75 122 -114 44 -39 88
-85 97 -102 32 -61 44 -63 84 -16 20 23 50 48 68 55 17 8 47 30 66 50 19 20
46 48 60 62 30 31 110 70 163 80 36 6 38 8 32 38 -17 85 -75 165 -163 223 -29
20 -68 54 -85 75 -64 79 -89 108 -96 108 -3 0 -37 -37 -76 -82z"/>
<path d="M8728 4648 c-2 -6 -1 -32 3 -57 4 -25 8 -97 8 -158 1 -111 6 -128 31
-98 7 8 20 15 29 15 23 0 41 19 34 36 -3 8 -1 14 4 14 13 0 43 -34 43 -48 0
-18 20 -24 36 -11 16 13 13 62 -6 98 -13 24 -56 142 -64 173 -6 27 -14 32 -78
42 -24 5 -37 3 -40 -6z"/>
<path d="M8598 4635 c-3 -4 -37 -10 -75 -13 -80 -8 -83 -13 -63 -127 16 -97
19 -105 38 -105 22 0 129 -34 138 -43 4 -4 14 -7 22 -7 11 0 13 20 6 122 -4
67 -10 134 -14 148 -6 23 -38 39 -52 25z"/>
<path d="M8250 4558 c-90 -36 -152 -68 -162 -82 -8 -12 -11 -156 -3 -156 2 0
21 11 41 25 21 14 49 28 63 31 14 3 36 10 49 15 13 5 45 9 72 9 45 0 49 2 54
28 9 48 -7 157 -24 158 -8 1 -49 -12 -90 -28z"/>
<path d="M2954 4564 c-3 -10 -11 -32 -17 -49 -16 -43 -18 -50 -28 -149 -5 -49
-7 -92 -4 -95 12 -11 22 23 34 117 7 53 17 116 23 140 10 42 4 72 -8 36z"/>
<path d="M9455 4540 c4 -6 11 -8 16 -5 14 9 11 15 -7 15 -8 0 -12 -5 -9 -10z"/>
<path d="M9542 4485 c2 -21 9 -40 16 -43 18 -6 15 53 -4 69 -14 11 -15 8 -12
-26z"/>
<path d="M2844 4468 c-11 -13 -58 -43 -106 -67 -84 -41 -105 -62 -74 -74 8 -3
30 -3 49 0 49 8 58 -14 19 -46 -18 -15 -34 -40 -38 -58 -5 -28 -4 -31 17 -30
13 1 35 -2 49 -5 23 -6 28 0 63 68 35 69 37 75 22 97 -14 23 -13 26 15 62 31
38 35 65 14 72 -7 2 -20 -7 -30 -19z"/>
<path d="M9325 4461 c-36 -14 -251 -21 -263 -9 -20 20 -14 -47 6 -71 16 -20
19 -20 67 -5 28 8 67 19 88 25 38 9 113 29 135 35 6 2 12 10 12 19 0 16 -14
18 -45 6z"/>
<path d="M11080 4389 c0 -11 11 -35 24 -52 13 -18 41 -66 61 -107 20 -41 44
-83 53 -93 14 -16 16 -15 33 12 11 18 30 32 49 36 17 4 33 12 36 19 4 12 -49
110 -79 145 -8 9 -17 24 -21 34 -5 17 -13 18 -65 12 -39 -4 -61 -3 -65 4 -12
18 -26 12 -26 -10z"/>
<path d="M9430 4382 c-22 -10 -36 -26 -38 -40 -4 -28 -66 -90 -107 -107 -16
-7 -52 -16 -78 -19 -27 -4 -50 -13 -53 -20 -3 -8 10 -47 29 -87 19 -41 37 -84
41 -96 16 -49 32 -46 71 14 21 32 58 77 82 100 42 40 48 42 87 36 34 -5 54
-19 117 -82 41 -42 94 -98 116 -126 l41 -50 28 29 c33 32 95 66 122 66 53 0
37 25 -111 173 -67 67 -135 139 -151 159 l-28 38 -29 -30 c-28 -27 -29 -33
-23 -80 4 -33 3 -50 -4 -50 -18 0 -29 31 -37 100 -7 60 -18 90 -34 90 -3 0
-22 -8 -41 -18z"/>
<path d="M10865 4392 c-16 -2 -35 -8 -42 -14 -7 -5 -31 -6 -57 -3 -53 8 -54 7
-26 -67 11 -29 33 -104 49 -167 30 -114 48 -151 59 -121 3 8 22 31 42 51 34
34 40 36 125 42 54 4 94 2 99 -3 15 -15 26 -12 26 5 0 18 -90 205 -120 250
-17 26 -25 30 -72 31 -29 0 -66 -1 -83 -4z"/>
<path d="M2539 4298 c-17 -16 -113 -82 -183 -125 -51 -31 -106 -81 -106 -95 0
-21 35 -3 84 41 30 28 69 52 87 56 50 11 169 73 169 89 0 7 -8 21 -19 30 -15
14 -21 15 -32 4z"/>
<path d="M4110 4300 c0 -5 5 -10 10 -10 6 0 10 5 10 10 0 6 -4 10 -10 10 -5 0
-10 -4 -10 -10z"/>
<path d="M10491 4257 c-66 -34 -129 -74 -174 -114 -39 -35 -91 -71 -114 -80
-24 -10 -43 -22 -43 -28 1 -5 45 -57 99 -114 l98 -105 34 16 c19 9 54 24 79
34 25 10 73 35 107 56 34 22 79 42 99 45 33 5 40 3 61 -23 l23 -29 0 37 c0 85
-82 280 -142 335 l-23 21 -104 -51z"/>
<path d="M8267 4249 c-72 -20 -144 -60 -154 -85 -10 -26 3 -26 63 1 48 21 68
25 106 20 27 -4 50 -11 54 -16 3 -5 12 -9 20 -9 12 0 14 11 12 52 -4 63 -7 64
-101 37z"/>
<path d="M8487 4263 c-3 -4 -7 -35 -8 -68 l-4 -60 60 -6 c33 -4 70 -10 82 -14
20 -6 21 -3 25 52 2 32 0 63 -4 69 -5 6 -30 14 -56 17 -26 3 -57 8 -68 12 -12
4 -24 3 -27 -2z"/>
<path d="M8830 4245 c-14 -8 -39 -14 -56 -15 -41 0 -58 -21 -49 -60 4 -16 9
-30 12 -30 3 0 18 11 35 25 16 14 40 25 53 25 21 0 65 44 65 64 0 11 -34 6
-60 -9z"/>
<path d="M2829 4155 c-13 -14 -45 -45 -71 -68 -45 -41 -50 -51 -63 -130 -8
-48 -26 -44 -42 9 -17 58 -15 95 7 137 26 48 25 57 -4 57 -41 0 -49 -21 -41
-112 4 -46 8 -119 9 -163 2 -88 8 -105 36 -105 22 0 30 19 30 76 l0 45 30 -18
c19 -11 28 -23 25 -32 -3 -7 4 -20 15 -28 28 -20 25 -31 -19 -73 -40 -38 -54
-77 -68 -192 -6 -42 1 -46 29 -21 10 9 28 21 41 27 35 18 48 59 52 169 4 99
29 255 59 366 19 70 9 92 -25 56z"/>
<path d="M8923 4120 c-28 -22 -64 -51 -80 -66 -15 -14 -40 -32 -55 -40 -16 -8
-29 -20 -29 -27 -4 -39 4 -143 11 -151 5 -5 22 2 40 18 17 14 41 28 53 30 62
11 170 26 192 26 13 0 26 4 29 8 11 18 -81 242 -98 241 -6 0 -34 -18 -63 -39z
m-57 -187 c-7 -7 -26 7 -26 19 0 6 6 6 15 -2 9 -7 13 -15 11 -17z"/>
<path d="M6424 4129 c-3 -6 -1 -16 5 -22 8 -8 11 -5 11 11 0 24 -5 28 -16 11z"/>
<path d="M2480 4086 c-25 -13 -65 -30 -90 -37 -50 -14 -145 -72 -153 -94 -7
-17 -11 -214 -5 -220 5 -5 50 8 153 46 33 12 79 24 102 26 39 5 42 7 57 53 23
69 16 239 -9 246 -5 2 -30 -8 -55 -20z"/>
<path d="M11345 4055 c-22 -13 -48 -25 -57 -25 -21 0 -24 -28 -4 -36 19 -7
136 56 136 73 0 20 -31 15 -75 -12z"/>
<path d="M4586 3991 c-19 -20 -20 -37 -5 -46 11 -7 49 27 49 44 0 18 -28 19
-44 2z"/>
<path d="M8165 3990 c-20 -13 -47 -20 -80 -20 -60 0 -97 -9 -89 -21 3 -5 24
-9 47 -9 23 0 47 -4 53 -8 16 -10 37 -82 32 -110 -3 -21 -9 -23 -78 -27 -80
-5 -236 -40 -259 -58 -11 -9 -12 -33 -8 -110 6 -109 14 -127 49 -109 13 6 51
20 84 31 52 17 71 19 120 11 33 -6 63 -10 67 -10 5 0 8 44 7 98 -1 53 -2 104
-1 112 1 12 16 15 69 15 60 0 73 -4 106 -29 20 -15 39 -26 42 -24 2 3 5 68 7
144 l2 139 -70 3 c-56 2 -76 -2 -100 -18z"/>
<path d="M11165 3990 c28 -12 37 -12 30 0 -3 6 -16 10 -28 9 -21 0 -21 -1 -2
-9z"/>
<path d="M4670 3969 c0 -5 5 -7 10 -4 6 3 10 8 10 11 0 2 -4 4 -10 4 -5 0 -10
-5 -10 -11z"/>
<path d="M9445 3964 c-68 -35 -93 -56 -105 -87 -8 -17 -20 -40 -29 -50 -13
-16 -13 -33 -3 -137 11 -109 46 -297 58 -309 2 -3 20 3 39 12 51 24 87 21 115
-8 13 -14 27 -22 32 -17 4 4 2 36 -4 70 -6 34 -8 65 -5 69 12 12 44 -27 71
-88 29 -63 42 -71 71 -39 9 10 47 40 84 64 48 33 73 44 89 39 27 -7 29 18 4
62 -44 78 -118 185 -128 185 -6 0 -29 -16 -50 -35 -21 -19 -46 -35 -55 -35
-10 0 -21 -4 -24 -10 -3 -5 -13 -10 -21 -10 -20 0 -18 47 4 59 16 9 16 10 0
16 -10 4 -18 13 -18 21 0 18 56 74 75 74 22 0 19 17 -16 74 -50 81 -67 96
-113 96 -23 0 -54 -7 -71 -16z m15 -260 c0 -8 -4 -12 -10 -9 -5 3 -10 13 -10
21 0 8 5 12 10 9 6 -3 10 -13 10 -21z m37 -40 c-3 -3 -12 -4 -19 -1 -8 3 -5 6
6 6 11 1 17 -2 13 -5z m-67 -74 c0 -5 -2 -10 -4 -10 -3 0 -8 5 -11 10 -3 6 -1
10 4 10 6 0 11 -4 11 -10z m20 -62 c0 -5 -4 -8 -10 -8 -5 0 -10 10 -10 23 0
18 2 19 10 7 5 -8 10 -18 10 -22z"/>
<path d="M8437 3955 c-10 -24 -8 -218 2 -233 7 -11 16 -11 52 -1 24 7 49 16
54 20 6 5 30 11 53 15 70 11 77 21 73 105 -1 40 -4 76 -6 80 -3 3 -30 9 -62
13 -32 3 -81 9 -109 12 -42 5 -52 3 -57 -11z m171 -57 c7 -7 12 -25 12 -40 0
-21 -5 -28 -20 -28 -22 0 -27 15 -9 26 8 4 8 9 0 17 -13 13 -15 37 -3 37 4 0
13 -5 20 -12z"/>
<path d="M9980 3921 c0 -4 -19 -21 -42 -37 -65 -43 -118 -86 -118 -95 0 -4 11
-21 25 -37 14 -17 31 -41 38 -54 25 -46 90 -143 101 -150 6 -4 14 -1 19 7 4 8
39 35 77 61 57 38 75 45 100 41 16 -4 30 -5 30 -2 0 10 -66 103 -99 140 -20
22 -50 61 -66 87 -17 28 -37 48 -47 48 -10 0 -18 -4 -18 -9z"/>
<path d="M1973 3887 c-10 -13 -30 -30 -44 -38 -62 -35 -89 -55 -98 -76 -7 -15
-19 -23 -34 -23 -14 0 -36 -9 -50 -20 -14 -11 -29 -20 -35 -20 -5 0 -22 -10
-38 -22 -15 -13 -42 -30 -59 -39 -23 -13 -32 -26 -38 -60 -12 -60 -24 -70 -47
-39 l-18 24 -7 -35 c-9 -46 -3 -122 10 -126 6 -2 25 10 43 26 18 17 44 36 60
43 17 9 26 21 25 33 -5 41 8 65 47 85 21 11 46 20 54 20 8 0 36 17 63 38 66
52 65 52 134 63 34 5 70 14 79 19 9 5 27 36 38 68 27 72 27 72 3 72 -10 0 -24
7 -31 15 -18 21 -36 19 -57 -8z"/>
<path d="M7098 3869 c-10 -5 -47 -11 -83 -12 l-65 -2 0 -30 c1 -65 50 -345 76
-432 27 -92 28 -93 60 -93 17 0 65 14 105 30 201 83 309 118 329 105 16 -10
27 21 34 93 3 40 13 89 21 109 8 19 15 40 15 46 0 16 -62 1 -160 -38 -104 -42
-176 -49 -227 -22 -40 21 -95 22 -133 2 l-30 -16 0 40 c0 22 -2 46 -6 54 -3 8
6 28 20 45 32 37 32 42 4 42 -21 0 -21 1 -3 20 10 11 32 24 49 28 17 5 31 14
31 22 0 18 -16 22 -37 9z"/>
<path d="M10730 3836 c-30 -12 -71 -30 -90 -41 -47 -26 -138 -55 -176 -55 -47
0 -58 -20 -40 -65 l16 -37 32 27 c50 41 180 115 203 115 11 0 37 9 58 20 20
11 44 20 52 20 15 0 21 26 8 33 -5 2 -33 -6 -63 -17z"/>
<path d="M6048 3808 c-5 -28 -4 -29 9 -13 15 21 17 45 4 45 -5 0 -11 -14 -13
-32z"/>
<path d="M5280 3790 c-17 -53 -8 -60 19 -15 24 42 26 55 8 55 -8 0 -20 -18
-27 -40z"/>
<path d="M11175 3810 c-27 -5 -72 -9 -100 -9 -48 -1 -145 -37 -159 -59 -6 -10
35 -93 64 -127 9 -11 22 -34 29 -52 21 -53 30 -55 109 -28 40 14 84 25 100 25
26 0 31 7 59 75 l32 75 -17 52 c-19 59 -26 62 -117 48z"/>
<path d="M10380 3800 c0 -13 11 -13 30 0 12 8 11 10 -7 10 -13 0 -23 -4 -23
-10z"/>
<path d="M5610 3760 c0 -5 5 -10 10 -10 6 0 10 5 10 10 0 6 -4 10 -10 10 -5 0
-10 -4 -10 -10z"/>
<path d="M7218 3753 c7 -3 16 -2 19 1 4 3 -2 6 -13 5 -11 0 -14 -3 -6 -6z"/>
<path d="M7681 3683 c-7 -26 -17 -59 -21 -73 -14 -40 -34 -140 -29 -144 2 -3
26 2 52 11 l47 15 -3 117 c-3 91 -7 117 -18 119 -10 2 -19 -13 -28 -45z"/>
<path d="M9145 3721 c-16 -14 -102 -39 -215 -61 -58 -12 -108 -24 -112 -28 -3
-4 -3 -25 2 -47 39 -195 50 -254 50 -279 0 -26 4 -55 26 -173 6 -30 28 -29 52
2 14 17 30 25 51 25 36 0 91 25 91 41 0 7 9 9 22 6 12 -3 30 -2 40 4 20 11 25
55 6 61 -7 3 -8 9 -3 18 6 10 10 10 20 -3 7 -10 26 -20 43 -23 47 -9 53 12 37
141 -17 135 -29 193 -58 268 -21 55 -33 66 -52 48z m-65 -361 c0 -5 -2 -10 -4
-10 -3 0 -8 5 -11 10 -3 6 -1 10 4 10 6 0 11 -4 11 -10z m30 -116 c0 -8 -4
-14 -10 -14 -5 0 -10 9 -10 21 0 11 5 17 10 14 6 -3 10 -13 10 -21z m-100 -38
c0 -10 -9 -13 -27 -11 -41 5 -41 7 -8 15 17 4 31 8 33 9 1 0 2 -5 2 -13z"/>
<path d="M2412 3699 c-23 -11 -84 -25 -135 -30 -50 -6 -99 -15 -108 -19 -18
-10 -35 -98 -21 -112 5 -5 20 -5 33 0 30 12 158 32 203 32 32 0 36 4 65 65 29
59 33 87 13 84 -4 0 -26 -10 -50 -20z"/>
<path d="M2566 3672 c-2 -4 -14 -30 -24 -58 -18 -43 -18 -53 -6 -74 7 -14 13
-35 14 -47 0 -20 -5 -23 -34 -23 -24 0 -36 -5 -40 -17 -13 -50 -17 -88 -12
-119 6 -27 12 -34 30 -34 13 0 28 6 33 13 14 17 59 168 74 247 24 127 24 120
-4 120 -14 0 -28 -4 -31 -8z"/>
<path d="M10813 3662 c-17 -9 -58 -33 -90 -52 -32 -19 -66 -38 -76 -42 -9 -4
-26 -16 -37 -26 -20 -19 -50 -35 -82 -46 -31 -9 -20 -40 33 -91 28 -28 59 -66
69 -86 10 -19 25 -41 34 -48 12 -10 17 -8 27 11 16 31 73 78 123 103 23 11 46
31 53 45 16 32 50 60 74 60 30 0 32 19 6 58 -14 20 -26 42 -29 47 -10 29 -51
85 -61 85 -7 -1 -26 -9 -44 -18z m-183 -203 c0 -5 -4 -9 -10 -9 -5 0 -10 7
-10 16 0 8 5 12 10 9 6 -3 10 -10 10 -16z"/>
<path d="M5996 3641 c-4 -7 -5 -15 -2 -18 9 -9 19 4 14 18 -4 11 -6 11 -12 0z"/>
<path d="M1910 3619 c-19 -12 -51 -36 -71 -54 -23 -20 -52 -36 -78 -40 -57
-10 -60 -22 -8 -44 25 -11 50 -28 55 -37 8 -14 13 -15 24 -7 7 7 36 13 63 15
l50 3 9 83 c5 48 4 88 -1 93 -5 5 -23 0 -43 -12z"/>
<path d="M10253 3603 c-12 -34 -59 -75 -130 -115 -40 -22 -73 -42 -73 -44 0
-3 9 -23 21 -45 21 -42 56 -52 52 -14 -3 39 116 165 156 165 23 0 27 20 11 51
-13 24 -29 25 -37 2z"/>
<path d="M8185 3586 c-20 -14 -18 -26 54 -286 12 -41 30 -113 41 -160 44 -181
45 -183 103 -173 47 7 47 9 2 240 -20 98 -39 214 -42 258 -6 69 -10 83 -34
107 -31 31 -91 38 -124 14z"/>
<path d="M8656 3581 c-9 -14 -98 -35 -151 -36 l-50 0 2 -35 c2 -50 19 -173 37
-260 42 -216 45 -226 79 -215 92 28 137 36 169 32 21 -3 40 -2 42 2 10 15 -26
253 -60 406 -8 39 -18 80 -20 93 -4 22 -37 31 -48 13z m44 -235 c0 -8 3 -21 6
-30 4 -10 1 -16 -9 -16 -21 0 -30 16 -22 40 7 23 25 27 25 6z m-40 -144 c-1
-25 -2 -26 -15 -9 -7 11 -11 25 -8 33 8 22 23 6 23 -24z m63 -42 c-3 -11 -7
-20 -9 -20 -2 0 -4 9 -4 20 0 11 4 20 9 20 5 0 7 -9 4 -20z m-133 -4 c0 -3 -4
-8 -10 -11 -5 -3 -10 -1 -10 4 0 6 5 11 10 11 6 0 10 -2 10 -4z"/>
<path d="M2899 3553 c-24 -26 -69 -122 -69 -147 0 -6 -7 -24 -16 -41 -9 -16
-22 -51 -30 -77 -14 -46 -40 -68 -64 -53 -18 11 -11 93 14 150 32 72 14 74
-54 5 -36 -35 -50 -57 -50 -77 -1 -15 -8 -57 -16 -93 -8 -36 -19 -87 -24 -114
-5 -27 -17 -57 -25 -65 -15 -15 -18 -14 -31 3 -19 26 -18 80 3 134 12 32 13
46 5 54 -8 8 -17 -1 -32 -37 -19 -43 -23 -47 -48 -42 -26 5 -28 3 -45 -56 -10
-34 -34 -93 -52 -132 -19 -38 -39 -92 -45 -120 -6 -27 -20 -63 -30 -80 -25
-41 -55 -176 -46 -210 5 -21 11 -25 24 -19 9 4 46 10 81 13 l64 6 19 59 c24
75 21 111 -10 112 -40 2 -92 36 -92 61 0 43 53 40 94 -6 23 -25 43 -27 68 -4
17 16 20 15 51 -15 36 -35 55 -38 134 -20 43 10 53 17 58 38 11 48 37 85 72
103 41 21 43 19 67 -45 22 -60 34 -68 42 -29 4 17 17 37 30 46 13 8 24 25 24
36 0 27 21 20 40 -14 20 -35 7 -55 -56 -87 -27 -14 -54 -36 -60 -49 -14 -26
-30 -283 -20 -300 5 -7 17 -3 36 11 23 17 53 24 132 31 136 12 206 18 246 19
27 1 32 5 32 26 0 13 -13 39 -29 58 -28 32 -51 88 -51 127 0 40 38 5 65 -58 9
-22 29 -53 44 -70 42 -44 59 -85 54 -126 -6 -46 9 -56 43 -30 15 12 35 21 45
21 11 0 19 5 19 10 0 6 -5 10 -11 10 -5 0 -19 21 -31 46 -20 46 -20 47 -1 72
11 15 34 30 52 35 40 10 111 53 111 67 0 6 5 10 12 10 17 0 138 116 138 132 0
10 -25 20 -103 43 -32 10 -71 28 -86 41 -16 13 -33 24 -39 24 -5 0 -30 22 -54
48 -38 41 -47 57 -53 103 -6 45 -14 60 -49 95 -23 22 -54 49 -70 59 -15 10
-39 36 -52 57 -27 42 -32 44 -60 24 -15 -12 -17 -17 -6 -27 20 -21 14 -65 -14
-99 -15 -17 -29 -29 -32 -26 -3 3 0 11 6 18 15 18 26 85 15 91 -15 10 -70 -35
-93 -75 -14 -25 -35 -44 -66 -57 -24 -11 -44 -24 -44 -29 0 -13 29 -37 70 -57
45 -23 218 -199 226 -230 8 -31 -3 -48 -27 -42 -11 3 -23 -1 -28 -10 -13 -24
-46 0 -65 47 -9 22 -16 46 -16 53 0 13 -45 37 -71 37 -9 0 -28 9 -42 20 -14
11 -30 20 -36 20 -6 0 -11 -9 -11 -20 0 -49 -48 2 -78 83 -22 59 -36 185 -23
205 4 8 15 12 24 10 15 -3 85 48 176 130 27 23 58 42 70 42 30 0 26 14 -14 58
-42 48 -149 112 -185 112 -16 0 -36 -11 -51 -27z m21 -258 c0 -8 -4 -15 -10
-15 -5 0 -10 7 -10 15 0 8 5 15 10 15 6 0 10 -7 10 -15z m524 -761 c7 -19 -2
-37 -15 -29 -12 8 -12 45 0 45 5 0 12 -7 15 -16z"/>
<path d="M1420 3454 c-16 -40 -13 -66 8 -62 12 2 18 15 20 46 4 47 -13 57 -28
16z"/>
<path d="M2319 3455 c-3 -3 -46 -13 -95 -24 l-89 -18 -7 -74 c-4 -41 -3 -78 1
-82 4 -4 19 1 32 12 19 14 46 20 113 24 48 2 91 8 96 13 4 5 10 41 12 79 l3
70 -30 3 c-17 2 -33 0 -36 -3z"/>
<path d="M1246 3406 c-20 -18 -36 -38 -36 -45 0 -14 -2 -14 52 5 47 16 62 32
52 59 -9 23 -30 18 -68 -19z"/>
<path d="M8070 3429 c-54 -12 -161 -31 -205 -38 -37 -6 -40 -8 -38 -36 1 -17
6 -50 12 -75 5 -25 19 -90 30 -145 47 -232 71 -335 81 -355 14 -26 34 -25 52
2 12 19 18 20 30 11 11 -10 22 -10 46 -1 24 10 36 9 56 -1 47 -26 72 -115 43
-155 -8 -11 -43 -23 -101 -34 l-88 -17 7 -35 c8 -44 31 -177 44 -250 11 -66
27 -110 40 -110 17 0 62 71 68 108 3 20 14 45 24 55 11 10 19 22 19 27 0 4 14
11 31 15 25 6 28 9 15 18 -11 9 -14 23 -9 54 l6 42 19 -25 c11 -13 17 -32 14
-41 -9 -23 12 -43 46 -43 l30 0 -7 63 c-4 34 -11 76 -16 92 -5 17 -20 68 -33
115 -13 47 -29 98 -35 113 -10 26 -12 27 -33 13 -14 -9 -28 -12 -37 -7 -20 13
-33 109 -20 146 8 22 9 45 1 81 -6 27 -16 128 -23 224 -7 100 -16 180 -23 186
-7 6 -25 7 -46 3z m-46 -609 c-7 -6 -24 22 -23 40 0 9 6 5 14 -10 7 -14 11
-27 9 -30z"/>
<path d="M6942 3392 c-16 -53 -15 -59 10 -66 32 -8 38 3 28 48 -13 57 -25 63
-38 18z"/>
<path d="M1712 3410 c-19 -4 -46 -19 -60 -33 -31 -30 -91 -57 -125 -57 -32 0
-47 -18 -47 -58 0 -34 1 -35 36 -29 21 4 44 1 55 -6 13 -8 22 -9 27 -2 4 6 25
11 47 12 55 4 84 21 100 60 11 26 22 35 59 44 25 6 46 13 46 15 0 2 -8 16 -17
31 -20 31 -59 38 -121 23z"/>
<path d="M10248 3336 c-69 -41 -117 -78 -118 -87 0 -17 67 -178 80 -192 12
-14 40 -1 131 59 58 39 97 58 127 62 23 2 42 9 42 14 0 6 -17 30 -39 54 -21
24 -49 71 -61 104 -12 33 -28 60 -34 59 -6 -1 -64 -33 -128 -73z"/>
<path d="M3310 3371 c-8 -17 2 -32 73 -105 45 -47 86 -86 90 -86 4 0 7 12 7
28 -1 31 -121 182 -145 182 -8 0 -19 -9 -25 -19z"/>
<path d="M6184 3333 c-64 -73 -134 -180 -134 -203 0 -11 5 -22 10 -25 6 -3 10
-17 10 -31 0 -21 -4 -24 -39 -24 -66 0 -95 -55 -50 -93 18 -16 23 -16 37 -5
19 16 68 38 82 38 15 0 12 -36 -4 -49 -7 -6 -20 -9 -29 -5 -8 3 -24 -2 -34
-10 -69 -60 -93 -76 -120 -76 -17 0 -37 -8 -45 -17 -15 -18 -76 -176 -85 -224
-6 -32 15 -51 62 -55 33 -3 35 -1 36 29 0 18 4 41 8 51 7 17 11 13 31 -28 30
-59 38 -64 59 -39 23 29 59 46 111 53 l44 5 13 62 c7 35 19 76 27 91 27 52
116 96 172 86 37 -7 48 10 34 53 -4 15 -14 58 -20 95 -16 89 -29 106 -65 90
-35 -16 -48 -5 -48 39 0 23 7 38 27 54 27 21 27 24 20 96 -11 119 -35 129
-110 42z"/>
<path d="M9911 3366 c-7 -8 -29 -23 -49 -34 -179 -95 -168 -84 -137 -136 13
-22 29 -42 34 -44 5 -2 18 10 30 27 12 16 37 35 55 41 19 6 42 22 50 36 12 18
25 24 52 24 43 0 52 18 30 65 -18 37 -45 46 -65 21z"/>
<path d="M7690 3343 c-25 -8 -51 -16 -57 -19 -18 -5 -16 -64 7 -196 28 -158
83 -368 108 -406 13 -19 42 -3 42 24 0 27 12 31 29 10 12 -14 54 -16 67 -3 6
6 -26 164 -46 232 -5 17 -12 50 -15 75 -4 25 -15 83 -25 130 -10 47 -23 103
-27 125 -10 46 -19 49 -83 28z"/>
<path d="M11095 3338 c-16 -6 -43 -16 -60 -23 -16 -8 -48 -20 -69 -27 -27 -9
-50 -27 -73 -59 -19 -27 -49 -53 -73 -64 -22 -10 -40 -21 -40 -26 0 -4 -13
-12 -30 -18 -16 -5 -30 -13 -30 -16 0 -6 25 -58 54 -110 9 -16 16 -36 16 -44
0 -19 53 -151 61 -151 5 0 135 222 168 288 10 18 8 34 -8 81 -22 60 -26 97
-13 105 14 9 31 -9 50 -54 l19 -45 42 82 c22 46 41 85 41 88 0 7 -20 5 -55 -7z"/>
<path d="M1149 3333 c-29 -5 -78 -52 -103 -100 -10 -21 -24 -33 -37 -33 -11 0
-22 -8 -26 -17 -3 -10 -28 -41 -55 -70 -43 -46 -58 -80 -43 -95 3 -3 22 10 42
28 20 19 41 34 46 34 4 0 23 11 41 25 18 14 42 25 53 25 11 0 28 9 38 20 12
13 25 18 37 14 12 -3 27 1 38 11 15 13 29 16 60 11 43 -7 38 -13 55 68 3 14 1
27 -3 30 -5 3 -40 -6 -77 -19 -77 -28 -115 -32 -115 -11 0 16 46 56 65 56 7 0
18 7 25 15 13 16 13 16 -41 8z"/>
<path d="M1380 3317 c-21 -11 -25 -21 -28 -65 -2 -42 0 -54 14 -59 23 -9 40
18 49 74 8 54 -1 67 -35 50z"/>
<path d="M6765 3274 c-38 -20 -90 -48 -115 -63 -66 -40 -143 -70 -195 -78 -58
-7 -58 -6 -9 -180 8 -29 19 -53 24 -53 6 0 32 15 58 34 27 18 59 37 73 41 13
4 29 11 34 15 6 4 35 11 66 14 56 7 57 7 78 -27 17 -27 21 -51 21 -113 1 -120
26 -404 37 -415 13 -13 93 11 101 30 8 21 40 51 54 51 6 0 20 -7 30 -16 15
-14 20 -15 34 -3 12 10 20 10 34 1 49 -30 40 37 -40 287 -52 161 -65 243 -47
295 23 66 37 57 37 -25 0 -40 4 -86 10 -103 5 -17 26 -78 46 -136 19 -58 44
-138 54 -177 11 -40 24 -82 30 -94 10 -18 13 -19 28 -6 9 8 33 18 52 22 19 4
38 12 42 18 3 6 28 11 55 13 27 1 67 10 89 19 21 9 57 20 79 25 169 38 156 25
126 128 -11 37 -29 112 -41 167 -12 55 -26 117 -31 138 -5 20 -14 74 -19 119
-5 45 -13 85 -18 90 -4 4 -89 -24 -187 -63 -179 -71 -180 -72 -265 -69 -144 5
-181 3 -193 -9 -6 -6 -18 -11 -27 -11 -14 0 -17 11 -16 65 1 37 6 69 14 77 41
41 -16 36 -103 -8z m545 -585 c0 -17 -4 -28 -10 -24 -5 3 -10 17 -10 31 0 13
5 24 10 24 6 0 10 -14 10 -31z m-253 -121 c-3 -7 -5 -2 -5 12 0 14 2 19 5 13
2 -7 2 -19 0 -25z"/>
<path d="M1797 3227 l-37 -42 -109 -1 c-59 -1 -114 -5 -122 -10 -8 -4 -24 -7
-35 -6 -27 4 -44 -39 -44 -112 0 -28 -9 -98 -20 -155 -11 -58 -18 -111 -16
-118 3 -7 18 -13 33 -13 14 0 37 -10 50 -22 l23 -21 47 20 c27 11 68 27 93 34
l45 14 0 77 c0 90 19 113 22 26 2 -73 15 -98 54 -98 21 0 32 6 38 23 23 56 46
189 45 257 0 83 -13 190 -23 190 -3 0 -23 -19 -44 -43z"/>
<path d="M2075 3177 c-18 -21 -38 -58 -45 -83 -25 -90 19 -295 47 -216 18 52
75 68 122 35 23 -16 25 -15 48 13 12 16 32 54 42 84 11 30 31 82 45 115 40 94
45 90 -100 90 l-127 0 -32 -38z"/>
<path d="M9470 3213 c-59 -8 -60 -13 -23 -125 18 -56 38 -129 45 -163 16 -79
41 -117 74 -109 20 5 25 1 34 -22 5 -16 15 -37 20 -46 6 -10 10 -30 11 -45 l0
-28 15 22 c13 19 19 20 40 11 19 -9 28 -8 39 3 13 12 12 23 -6 79 -15 50 -18
70 -9 88 17 39 13 62 -13 62 -13 0 -32 -7 -43 -15 -10 -8 -25 -15 -32 -15 -16
0 -52 83 -52 122 0 24 4 29 23 28 55 -5 59 8 27 75 -39 82 -54 89 -150 78z"/>
<path d="M1352 3138 c-14 -14 -17 -298 -3 -298 19 0 42 125 39 214 -3 88 -12
108 -36 84z"/>
<path d="M9985 3106 c-22 -23 -65 -56 -95 -72 -50 -26 -55 -33 -60 -69 -3 -22
-9 -45 -13 -52 -17 -28 42 -113 79 -113 14 0 28 9 35 23 7 12 20 28 31 35 10
7 18 20 18 27 0 8 12 21 28 29 15 8 36 23 46 35 11 12 30 21 43 21 31 0 29 22
-8 85 -16 28 -33 60 -39 73 -5 12 -13 22 -17 22 -5 -1 -26 -20 -48 -44z"/>
<path d="M1195 3110 c-33 -11 -68 -25 -77 -30 -10 -6 -48 -26 -85 -46 -38 -20
-75 -42 -84 -50 -8 -8 -25 -14 -37 -14 -30 0 -62 -54 -62 -106 0 -34 12 -60
68 -145 37 -58 77 -118 88 -134 l21 -28 34 21 c19 12 46 27 62 33 17 7 27 18
27 32 0 19 1 20 16 5 13 -13 21 -13 45 -5 16 6 29 15 29 19 0 4 9 8 19 8 52 0
63 27 40 100 -6 19 -10 100 -10 179 0 130 -7 182 -27 181 -4 -1 -34 -10 -67
-20z m-92 -280 c3 -11 1 -20 -4 -20 -5 0 -9 9 -9 20 0 11 2 20 4 20 2 0 6 -9
9 -20z m17 -70 c0 -5 -2 -10 -4 -10 -3 0 -8 5 -11 10 -3 6 -1 10 4 10 6 0 11
-4 11 -10z"/>
<path d="M9251 3062 c-30 -42 -188 -112 -281 -124 -20 -2 -24 -8 -22 -28 7
-66 70 -322 81 -333 15 -15 47 8 174 131 43 40 85 72 96 72 11 0 23 5 27 11 3
6 -1 59 -10 118 -10 58 -20 120 -22 138 -6 44 -19 48 -43 15z m-151 -218 c0
-8 -4 -14 -9 -14 -13 0 -41 46 -41 67 1 15 5 13 25 -10 14 -15 25 -35 25 -43z
m48 -56 c15 -55 -7 -67 -33 -18 -20 39 -19 50 5 50 13 0 22 -10 28 -32z m-58
-44 c0 -2 -11 -4 -25 -4 -14 0 -25 4 -25 9 0 4 11 6 25 3 14 -2 25 -6 25 -8z
m28 -62 c3 -9 -3 -13 -19 -10 -12 1 -24 9 -27 16 -3 9 3 13 19 10 12 -1 24 -9
27 -16z"/>
<path d="M10514 2989 c-61 -64 -112 -97 -189 -124 l-60 -21 2 -45 c1 -24 4
-95 7 -157 4 -105 19 -182 34 -182 4 1 16 15 27 33 11 18 34 38 52 46 18 8 33
21 35 28 3 14 97 53 128 53 9 0 34 9 55 20 25 13 50 19 68 16 33 -7 34 1 7 72
-11 29 -20 67 -20 85 0 33 -77 227 -90 227 -4 0 -29 -23 -56 -51z"/>
<path d="M791 2983 c0 -6 -4 -20 -7 -30 -5 -14 -4 -15 5 -7 7 7 11 20 8 30 -3
11 -5 14 -6 7z"/>
<path d="M8685 2886 c-81 -18 -101 -26 -104 -41 -6 -34 54 -352 74 -394 12
-23 12 -23 31 -4 22 23 67 39 139 49 28 3 53 8 56 10 4 2 -2 45 -12 96 -11 51
-26 127 -35 168 -23 115 -28 133 -39 135 -6 1 -55 -8 -110 -19z m62 -102 c-3
-3 -12 -4 -19 -1 -8 3 -5 6 6 6 11 1 17 -2 13 -5z"/>
<path d="M8392 2833 l-44 -4 7 -42 c64 -418 63 -413 98 -402 12 4 39 10 61 12
l38 5 -5 47 c-5 42 -39 208 -67 321 -11 44 -27 72 -39 68 -3 -1 -25 -3 -49 -5z"/>
<path d="M6598 2782 c-95 -48 -101 -58 -79 -128 5 -16 19 -67 31 -114 32 -124
41 -150 49 -150 4 0 11 15 16 33 l10 32 68 -1 67 -1 0 37 c0 20 -4 61 -9 91
-5 30 -15 98 -21 152 -10 79 -16 97 -29 96 -9 -1 -55 -22 -103 -47z"/>
<path d="M10035 2805 c-22 -14 -57 -30 -77 -35 -33 -9 -38 -15 -38 -40 0 -16
4 -31 9 -34 4 -3 11 -20 14 -38 3 -18 13 -71 21 -118 8 -47 20 -139 26 -204 6
-65 13 -122 15 -126 3 -4 16 -5 30 -2 14 2 25 0 25 -4 -1 -24 -22 -34 -80 -41
-48 -5 -70 -12 -87 -29 -26 -26 -30 -61 -9 -90 10 -13 13 -33 9 -62 -8 -56 18
-253 33 -259 6 -2 27 0 45 5 l34 8 5 177 c3 122 9 180 18 189 6 6 28 12 47 12
31 0 35 3 35 26 0 14 -5 43 -10 65 -14 57 2 96 47 120 l38 20 -3 100 c-2 55
-8 118 -14 139 -5 21 -13 84 -16 140 l-7 101 -35 2 c-23 2 -48 -5 -75 -22z"/>
<path d="M3857 2733 c-26 -32 -72 -104 -103 -161 -39 -71 -66 -107 -85 -118
-16 -8 -30 -18 -30 -22 -1 -4 -3 -17 -4 -30 -1 -12 -5 -25 -9 -29 -17 -18
-146 -53 -192 -53 -76 0 -84 -12 -83 -118 2 -147 3 -149 114 -118 33 10 103
20 155 23 52 3 117 11 144 19 27 8 65 14 83 14 18 0 33 4 33 8 0 16 -42 128
-54 142 -7 8 -17 32 -23 52 -10 33 -8 41 9 63 11 14 24 25 30 25 17 0 71 50
104 96 40 56 127 140 153 149 47 15 4 75 -53 75 -19 0 -37 4 -40 9 -3 4 -20
11 -38 14 -18 3 -40 8 -49 11 -10 5 -29 -11 -62 -51z"/>
<path d="M4216 2775 c4 -8 10 -15 15 -15 4 0 6 7 3 15 -4 8 -10 15 -15 15 -4
0 -6 -7 -3 -15z"/>
<path d="M2148 2733 c-9 -10 -19 -28 -23 -41 -3 -12 -24 -31 -45 -42 -21 -11
-41 -28 -44 -37 -21 -76 -37 -156 -32 -169 5 -12 14 -14 38 -8 18 4 55 8 81 9
64 3 86 23 68 62 -7 15 -15 75 -17 132 -2 57 -5 106 -7 108 -2 2 -11 -5 -19
-14z"/>
<path d="M4264 2725 c8 -8 20 -15 27 -15 7 0 4 6 -7 15 -25 19 -40 19 -20 0z"/>
<path d="M6410 2691 c-8 -4 -44 -14 -80 -21 -94 -18 -186 -66 -205 -107 -16
-34 -73 -76 -126 -95 -16 -5 -29 -12 -29 -14 0 -2 9 -27 20 -57 30 -79 60
-229 70 -341 9 -112 25 -143 58 -113 10 9 23 17 28 17 5 0 38 14 74 32 68 33
82 39 139 57 19 6 42 17 50 25 40 34 74 22 87 -30 21 -84 -55 -146 -276 -223
-103 -37 -100 -33 -83 -83 23 -67 40 -138 48 -200 7 -67 17 -76 45 -48 11 11
24 20 30 20 5 0 25 14 44 30 l34 31 28 -36 c22 -29 26 -43 21 -74 -9 -68 -27
-92 -102 -131 -45 -24 -69 -42 -66 -51 4 -16 22 -277 20 -296 -2 -18 -1 -219
1 -383 1 -74 -1 -175 -4 -225 -7 -103 3 -136 31 -98 8 13 20 23 26 23 5 0 24
10 41 23 76 55 292 137 361 137 14 0 25 3 25 8 0 7 -62 174 -80 217 -5 11 -14
38 -21 60 -23 72 -3 74 -228 -13 -24 -9 -60 -31 -81 -49 -20 -18 -40 -29 -44
-26 -11 11 -6 106 8 153 16 54 49 76 179 117 98 31 97 28 71 128 -9 33 -23 91
-31 128 -9 38 -22 71 -30 74 -7 3 -35 -13 -62 -36 -67 -56 -74 -54 -65 17 10
80 48 128 81 101 25 -22 27 1 9 124 -28 183 -30 223 -16 301 16 87 25 106 50
106 10 0 22 5 25 10 3 6 17 10 30 10 15 0 26 7 30 21 5 15 10 18 18 10 16 -16
37 -14 37 4 0 17 17 20 22 4 2 -7 23 -13 46 -16 32 -3 44 0 48 12 4 10 10 12
18 7 17 -14 96 -24 96 -12 0 5 -9 67 -20 137 -11 71 -23 160 -27 198 -8 70 -8
70 -38 69 -52 -3 -113 -24 -143 -49 -17 -14 -34 -25 -39 -25 -6 0 -18 30 -27
68 -9 37 -21 81 -26 97 -5 17 -21 82 -36 145 -14 63 -28 121 -30 128 -4 14
-13 15 -34 3z m220 -647 c0 -8 -4 -12 -10 -9 -5 3 -10 10 -10 16 0 5 5 9 10 9
6 0 10 -7 10 -16z m-330 -1018 c0 -17 -28 -41 -37 -32 -10 9 16 58 27 51 6 -3
10 -12 10 -19z"/>
<path d="M9722 2645 c-41 -25 -76 -45 -78 -45 -8 0 -33 58 -27 64 4 3 -12 6
-35 6 -23 0 -42 -4 -42 -8 0 -5 8 -26 19 -48 22 -45 40 -133 40 -185 -1 -20 6
-50 15 -67 9 -17 16 -40 16 -50 0 -33 32 -50 120 -63 47 -6 96 -18 108 -26 13
-8 26 -13 28 -10 11 11 5 170 -10 242 -9 44 -22 114 -29 155 -15 94 -26 97
-125 35z"/>
<path d="M2520 2650 c-12 -23 -22 -134 -13 -145 8 -11 68 -38 117 -52 31 -10
75 -58 63 -69 -4 -4 -26 1 -50 10 -23 9 -48 16 -55 16 -7 0 -26 10 -42 21 -16
12 -35 19 -43 16 -15 -6 -28 -60 -18 -75 3 -4 35 -13 71 -20 35 -6 87 -23 114
-36 27 -14 53 -23 57 -20 4 2 3 21 -2 41 -5 21 -7 103 -3 183 l6 145 -97 0
c-76 0 -99 -3 -105 -15z"/>
<path d="M4047 2482 c-86 -87 -157 -165 -157 -174 0 -14 56 -58 72 -58 3 0 8
17 11 39 3 24 24 65 56 112 46 65 56 75 89 79 33 4 37 9 40 35 5 58 13 76 37
87 23 10 35 38 17 38 -4 0 -78 -71 -165 -158z"/>
<path d="M1457 2618 c-34 -12 -34 -14 9 -160 15 -54 33 -98 40 -98 7 0 17 22
24 48 9 39 17 50 40 59 24 9 37 7 78 -13 27 -13 55 -30 62 -39 18 -22 37 -19
43 8 3 12 9 58 13 101 l7 79 -24 -8 c-62 -20 -120 -17 -179 9 -63 28 -71 29
-113 14z"/>
<path d="M9265 2490 c-64 -64 -115 -106 -142 -117 -24 -10 -45 -23 -47 -29 -6
-16 41 -255 58 -296 14 -33 14 -33 20 -8 2 14 7 46 9 72 2 26 12 54 21 63 9 9
16 23 16 31 0 8 12 19 27 25 14 5 37 20 49 32 13 12 32 30 43 39 25 21 86 34
95 19 4 -6 12 -11 18 -11 12 0 8 28 -20 155 -22 98 -31 125 -41 125 -3 0 -51
-45 -106 -100z m95 -20 c0 -5 -2 -10 -4 -10 -3 0 -8 5 -11 10 -3 6 -1 10 4 10
6 0 11 -4 11 -10z"/>
<path d="M4460 2562 c0 -4 16 -23 35 -42 19 -19 35 -40 35 -46 0 -17 64 -74
83 -74 22 0 22 26 0 32 -10 3 -25 18 -33 34 -29 55 -120 128 -120 96z"/>
<path d="M7880 2560 c-8 -5 -29 -10 -47 -10 -17 0 -34 -4 -37 -8 -5 -8 2 -42
23 -114 6 -18 23 -80 39 -138 40 -142 40 -142 66 -135 69 20 76 26 72 64 -6
50 -39 241 -54 311 -8 37 -33 49 -62 30z m-10 -113 c0 -5 -4 -5 -10 -2 -5 3
-10 14 -10 23 0 15 2 15 10 2 5 -8 10 -19 10 -23z"/>
<path d="M1241 2491 c-63 -25 -116 -52 -119 -59 -4 -12 115 -172 129 -172 4 0
11 5 14 10 3 6 17 10 31 10 13 0 24 5 24 10 0 6 12 10 26 10 51 0 64 16 63 78
-1 79 -20 156 -39 158 -8 1 -66 -19 -129 -45z m69 -121 c0 -5 -2 -10 -4 -10
-3 0 -8 5 -11 10 -3 6 -1 10 4 10 6 0 11 -4 11 -10z"/>
<path d="M4277 2494 c-40 -38 -52 -45 -74 -39 -23 5 -25 4 -14 -8 16 -20 5
-64 -26 -100 -12 -16 -23 -33 -23 -39 0 -5 -9 -21 -20 -35 -25 -32 -25 -43 -2
-43 10 0 54 -15 99 -34 l81 -35 79 87 c43 48 93 102 112 120 l35 34 -35 30
c-57 51 -137 108 -151 108 -7 0 -35 -21 -61 -46z"/>
<path d="M7689 2516 c-3 -3 -67 -21 -144 -41 -77 -19 -147 -39 -155 -44 -9 -5
-48 -12 -88 -16 -81 -8 -80 -6 -57 -90 30 -112 43 -161 55 -222 7 -35 18 -71
26 -80 12 -17 14 -17 38 6 19 18 41 26 81 29 31 2 58 8 61 13 3 5 13 9 23 9 9
0 46 12 82 26 35 14 75 28 89 29 13 2 26 8 28 13 2 6 18 6 43 1 22 -5 44 -7
48 -4 10 5 -9 88 -43 197 -14 43 -28 95 -32 115 -4 21 -11 44 -17 51 -9 12
-30 16 -38 8z m-255 -162 c11 -30 6 -37 -14 -19 -11 10 -20 22 -20 27 0 15 28
9 34 -8z m45 -100 c3 -16 1 -17 -13 -5 -19 16 -21 34 -3 29 6 -3 14 -13 16
-24z m230 -28 c8 -14 18 -23 23 -20 4 3 8 0 8 -5 0 -18 -19 -12 -32 8 -9 15
-16 17 -30 10 -16 -8 -18 -5 -18 21 0 26 3 29 18 21 10 -5 24 -21 31 -35z
m-279 -68 c0 -13 -23 -5 -28 10 -2 7 2 10 12 6 9 -3 16 -11 16 -16z m240 12
c0 -5 -5 -10 -11 -10 -5 0 -7 5 -4 10 3 6 8 10 11 10 2 0 4 -4 4 -10z m-30
-20 c0 -5 -9 -10 -21 -10 -11 0 -17 5 -14 10 3 6 13 10 21 10 8 0 14 -4 14
-10z"/>
<path d="M5683 2484 c-6 -10 -16 -43 -23 -72 -7 -30 -18 -56 -24 -58 -7 -2
-12 -13 -13 -24 -1 -11 -11 -32 -22 -46 -12 -15 -21 -40 -21 -55 0 -31 -9 -36
-27 -18 -8 8 -14 5 -23 -10 -8 -17 -8 -26 5 -43 19 -28 21 -68 3 -50 -19 19
-29 14 -22 -13 5 -19 0 -30 -23 -49 -15 -14 -34 -26 -41 -26 -7 0 -15 -7 -18
-15 -4 -9 -19 -15 -39 -15 -18 0 -38 -7 -45 -15 -7 -8 -19 -15 -27 -15 -11 0
-14 -7 -11 -25 4 -21 1 -25 -18 -25 -17 0 -24 6 -24 19 0 11 5 23 10 26 13 8
13 35 1 35 -5 0 -19 -16 -31 -35 -24 -39 -39 -43 -74 -19 -23 14 -25 14 -31
-5 -3 -12 -4 -25 -1 -29 4 -7 -45 -9 -76 -3 -18 3 -6 20 19 28 l26 9 -23 22
c-17 16 -27 19 -36 11 -10 -8 -13 -2 -16 28 -2 29 -9 41 -29 50 -19 9 -29 24
-33 48 -7 33 -8 34 -29 20 -26 -17 -50 -6 -47 21 6 53 1 65 -25 58 -17 -4 -34
1 -57 17 -42 31 -68 56 -61 62 12 12 -86 127 -109 127 -14 0 -17 -18 -4 -23 7
-3 27 -33 44 -67 25 -49 28 -62 16 -67 -7 -3 -21 -3 -29 1 -25 9 -61 -10 -102
-55 -21 -23 -50 -53 -65 -67 -16 -14 -28 -30 -28 -36 0 -6 35 -27 78 -46 42
-19 91 -43 107 -53 110 -67 198 -127 248 -169 57 -47 80 -57 91 -39 24 38 89
1 121 -68 17 -38 17 -42 2 -59 -10 -10 -17 -23 -17 -28 0 -17 95 -112 155
-154 33 -23 95 -77 138 -119 74 -73 77 -77 77 -122 0 -52 -14 -69 -104 -121
-25 -15 -46 -34 -46 -41 0 -8 16 -54 35 -102 71 -176 105 -227 105 -159 0 20
5 24 29 24 67 0 87 -10 109 -56 38 -77 23 -113 -29 -75 -31 23 -54 27 -64 11
-3 -5 -15 -10 -25 -10 -12 0 -21 -10 -25 -30 -4 -16 -4 -33 -2 -37 3 -5 8 -41
11 -82 4 -41 9 -78 12 -83 10 -15 22 -8 34 22 7 17 15 31 19 31 3 1 18 3 32 4
14 2 55 13 89 24 35 12 69 21 76 21 6 0 31 9 55 20 24 11 56 20 71 20 15 0 30
4 33 10 12 20 -68 205 -119 275 -12 17 -33 50 -45 75 -44 86 -82 136 -136 179
-30 24 -55 50 -55 57 0 7 -8 18 -17 23 -15 9 -13 10 13 11 19 0 34 6 38 15 3
8 18 15 33 15 14 0 45 9 67 19 58 27 133 51 161 51 26 0 76 19 86 33 4 5 40
17 80 27 70 16 74 18 77 47 3 29 -34 272 -42 281 -3 2 -18 -6 -35 -19 -21 -16
-52 -24 -103 -30 -40 -4 -93 -12 -118 -19 -35 -9 -69 -9 -157 1 -125 14 -127
16 -140 105 -6 47 0 52 32 30 30 -20 230 -15 272 7 18 9 53 17 80 17 59 0 133
27 134 49 3 57 -4 147 -17 211 -27 143 -36 185 -43 205 -4 11 -14 48 -22 83
-18 83 -30 93 -120 94 -61 1 -77 5 -90 22 -16 20 -16 20 -26 0z"/>
<path d="M2313 2429 c-37 -23 -40 -42 -18 -95 l15 -35 25 18 c27 20 30 28 40
91 6 37 4 42 -12 42 -10 0 -33 -10 -50 -21z"/>
<path d="M3265 2424 c-11 -3 -42 -11 -70 -19 -49 -14 -156 -31 -185 -28 -26 3
-124 -27 -132 -39 -12 -19 -10 -44 5 -56 13 -11 51 0 62 17 3 6 21 11 40 11
18 0 70 15 114 34 44 19 109 37 143 41 64 7 92 20 82 36 -5 9 -23 10 -59 3z"/>
<path d="M10520 2395 c-19 -8 -73 -27 -119 -44 -46 -17 -98 -39 -115 -49 -29
-18 -31 -22 -28 -73 1 -30 9 -78 18 -108 8 -29 12 -56 9 -59 -3 -4 -27 -8 -53
-9 -58 -4 -77 -24 -92 -98 -24 -116 -16 -112 127 50 123 140 292 347 314 388
12 21 -8 21 -61 2z"/>
<path d="M7110 2360 c-66 -36 -140 -53 -207 -46 l-63 7 0 -65 c0 -35 5 -88 11
-118 5 -29 14 -73 19 -98 19 -98 20 -100 41 -100 17 0 20 5 17 25 -6 29 -1 31
30 9 22 -15 24 -15 29 4 5 23 44 37 54 21 4 -7 16 -8 30 -3 13 4 29 6 34 4 6
-2 43 -4 83 -5 l74 -2 -5 41 c-3 23 -22 108 -43 191 -27 105 -44 151 -54 152
-8 1 -31 -6 -50 -17z m50 -240 c0 -5 -2 -10 -4 -10 -3 0 -8 5 -11 10 -3 6 -1
10 4 10 6 0 11 -4 11 -10z m10 -60 c0 -5 -4 -10 -10 -10 -5 0 -10 5 -10 10 0
6 5 10 10 10 6 0 10 -4 10 -10z"/>
<path d="M1591 2334 c-17 -14 -31 -32 -31 -39 0 -8 -9 -17 -20 -20 -19 -6 -29
-45 -12 -45 14 0 59 53 67 78 7 24 9 25 74 22 40 -2 43 0 32 14 -21 25 -75 20
-110 -10z"/>
<path d="M2200 2321 c-8 -5 -56 -11 -106 -13 -116 -7 -134 -16 -134 -69 0 -35
2 -40 18 -33 9 4 68 10 130 13 125 7 134 12 130 70 -3 37 -14 46 -38 32z"/>
<path d="M8876 2285 c-16 -9 -34 -14 -39 -12 -5 1 -35 -2 -66 -9 -67 -13 -67
-11 -17 -149 60 -164 104 -235 107 -168 1 15 0 36 -1 46 -1 16 1 16 19 5 18
-11 23 -10 35 7 14 20 15 19 43 -8 33 -31 43 -27 43 17 0 39 -38 210 -56 254
-15 36 -26 39 -68 17z m24 -56 c0 -18 -2 -19 -15 -9 -15 12 -12 30 6 30 5 0 9
-10 9 -21z"/>
<path d="M3180 2245 c-143 -73 -153 -76 -227 -82 -43 -4 -73 -10 -73 -17 0 -6
7 -32 17 -58 l16 -46 78 -7 c43 -4 83 -4 90 1 7 4 51 6 99 5 64 -1 90 2 99 12
6 8 12 59 14 123 2 90 -1 109 -13 111 -8 1 -53 -18 -100 -42z"/>
<path d="M2492 2219 l-34 -10 7 -82 c10 -126 46 -218 62 -159 6 26 85 59 168
70 57 8 62 17 50 109 -5 38 -12 56 -26 64 -28 15 -187 21 -227 8z"/>
<path d="M8515 2221 c-72 -7 -69 9 -31 -206 27 -157 46 -201 65 -152 15 38 61
59 99 46 17 -6 33 -20 37 -32 l8 -22 4 22 c2 12 -10 75 -28 140 -17 65 -35
133 -39 151 -9 37 -27 63 -44 60 -6 -1 -38 -4 -71 -7z"/>
<path d="M9644 2217 c-3 -8 4 -88 14 -180 14 -123 24 -174 38 -194 29 -42 44
-82 44 -114 0 -27 -3 -29 -40 -29 -25 0 -40 -5 -40 -12 0 -41 24 -258 29 -258
4 0 49 40 100 88 l95 88 -37 90 c-58 144 -70 209 -67 378 0 59 -22 90 -57 81
-19 -4 -26 2 -43 35 -22 43 -28 47 -36 27z"/>
<path d="M9401 2195 c-37 -17 -134 -85 -140 -99 -12 -29 -76 -86 -97 -86 -28
0 -29 -7 -14 -161 16 -164 24 -181 54 -111 21 50 55 88 91 103 43 17 180 38
205 32 17 -4 20 -1 20 23 0 16 -6 58 -14 94 -8 36 -17 94 -21 130 -10 93 -21
102 -84 75z m36 -141 c-9 -9 -28 6 -21 18 4 6 10 6 17 -1 6 -6 8 -13 4 -17z"/>
<path d="M8340 2190 c-8 -5 -23 -10 -33 -10 -10 0 -42 -16 -72 -35 -40 -27
-58 -47 -74 -85 -12 -27 -28 -53 -37 -58 -15 -8 -15 -17 -5 -74 6 -36 11 -78
11 -94 0 -17 6 -39 14 -49 13 -18 15 -17 25 23 8 29 17 42 29 42 10 0 27 7 38
15 10 8 25 15 32 15 7 0 20 7 28 15 25 24 49 18 92 -24 22 -22 43 -37 46 -34
3 4 6 20 6 37 -1 44 -44 299 -53 314 -10 14 -26 15 -47 2z m-125 -190 c3 -5 1
-10 -4 -10 -6 0 -11 5 -11 10 0 6 2 10 4 10 3 0 8 -4 11 -10z m81 -47 c-7 -7
-26 7 -26 19 0 6 6 6 15 -2 9 -7 13 -15 11 -17z m-45 -35 c11 -21 11 -22 -4
-9 -10 7 -17 17 -17 22 0 15 9 10 21 -13z"/>
<path d="M1694 2176 c-19 -9 -34 -24 -38 -39 -6 -25 -65 -57 -105 -57 -29 0
-61 -47 -61 -89 0 -32 9 -45 74 -110 l73 -73 57 13 c31 7 59 16 62 20 3 5 -3
48 -12 96 -10 56 -14 108 -10 143 11 98 11 103 1 106 -5 2 -24 -3 -41 -10z"/>
<path d="M2349 2117 c-23 -29 -26 -43 -33 -154 -4 -82 -3 -124 4 -128 6 -4 26
5 45 19 18 14 40 26 49 26 18 0 24 25 15 65 -17 77 -28 133 -34 168 -3 20 -9
37 -13 37 -4 0 -19 -15 -33 -33z m26 -117 c3 -5 1 -10 -4 -10 -6 0 -11 5 -11
10 0 6 2 10 4 10 3 0 8 -4 11 -10z"/>
<path d="M4077 2113 c-13 -12 -7 -54 11 -91 59 -119 100 -194 136 -247 47 -68
106 -212 106 -256 0 -8 6 -23 13 -33 12 -17 16 -17 38 -4 13 9 67 25 119 37
52 12 102 25 110 28 8 3 33 7 55 8 22 2 60 10 85 19 25 9 62 16 82 16 20 0 48
4 63 10 24 9 25 11 11 37 -18 34 -78 94 -132 130 -208 141 -305 200 -476 288
-100 51 -137 65 -171 65 -24 0 -47 -3 -50 -7z"/>
<path d="M1925 2060 c-3 -5 -3 -37 1 -70 8 -69 13 -74 132 -134 101 -51 115
-47 123 29 3 33 9 85 14 116 l7 57 -108 -2 c-60 0 -121 2 -136 7 -15 4 -29 3
-33 -3z"/>
<path d="M5430 2045 c-8 -9 -8 -15 -2 -15 12 0 26 19 19 26 -2 2 -10 -2 -17
-11z"/>
<path d="M3930 2035 c-17 -20 -64 -32 -200 -50 -63 -9 -152 -27 -197 -41 -57
-18 -91 -24 -114 -19 -31 7 -31 6 -26 -21 18 -100 122 -450 143 -481 16 -26
44 -28 192 -16 72 5 85 9 92 27 9 21 9 21 9 -1 1 -28 0 -28 97 -3 44 11 126
23 182 27 l104 6 -5 36 c-6 42 -42 186 -63 251 -38 114 -156 300 -190 300 -6
0 -17 -7 -24 -15z"/>
<path d="M8015 1953 c-70 -14 -67 -12 -62 -46 6 -41 40 -166 63 -235 l18 -54
18 24 c9 12 18 33 18 45 0 12 5 34 10 49 19 48 -13 228 -39 223 -3 -1 -15 -3
-26 -6z m15 -80 c0 -22 -2 -25 -10 -13 -13 20 -13 40 0 40 6 0 10 -12 10 -27z
m20 -70 c0 -7 -4 -13 -10 -13 -5 0 -10 12 -10 28 0 21 2 24 10 12 5 -8 10 -21
10 -27z"/>
<path d="M7815 1923 c-39 -9 -180 -54 -210 -67 -49 -22 -97 -35 -158 -42 -32
-4 -61 -13 -64 -19 -2 -7 7 -59 21 -114 14 -56 26 -109 26 -117 0 -21 30 -84
40 -84 5 0 10 12 12 26 2 20 12 29 43 40 22 7 45 20 51 29 6 8 16 15 22 15 26
0 30 98 7 153 -17 42 -19 57 -5 57 13 0 42 -58 35 -70 -9 -14 17 -130 30 -130
5 1 30 5 55 11 25 5 59 11 75 12 17 2 52 7 78 12 44 7 49 6 54 -14 8 -30 23
-26 23 5 0 29 -47 245 -61 282 -8 22 -27 26 -74 15z m-298 -205 c-3 -8 -6 -5
-6 6 -1 11 2 17 5 13 3 -3 4 -12 1 -19z m288 -48 c3 -5 2 -10 -4 -10 -5 0 -13
5 -16 10 -3 6 -2 10 4 10 5 0 13 -4 16 -10z"/>
<path d="M2941 1911 c-16 -10 25 -326 59 -453 12 -44 18 -46 69 -16 37 21 42
22 187 11 82 -6 157 -14 167 -18 21 -9 22 12 6 82 -6 27 -15 64 -19 83 -4 19
-22 85 -39 145 -17 61 -32 119 -33 130 -3 17 -13 21 -73 26 -124 12 -312 17
-324 10z"/>
<path d="M8996 1901 c-17 -19 -60 -32 -103 -31 -32 0 -30 -34 6 -112 16 -35
39 -92 51 -128 32 -93 37 -97 75 -60 17 16 37 30 44 30 21 0 8 120 -31 283
-10 42 -17 45 -42 18z"/>
<path d="M2697 1843 c-20 -16 -58 -41 -86 -58 -28 -16 -52 -34 -54 -40 -2 -5
2 -39 10 -75 31 -147 43 -229 43 -306 0 -87 8 -144 20 -144 4 0 27 16 51 35
48 39 99 64 172 85 49 15 58 31 37 68 -22 39 -81 240 -102 347 -26 129 -31
134 -91 88z"/>
<path d="M8694 1804 c-12 -8 -51 -15 -95 -17 -86 -4 -81 7 -59 -137 7 -47 15
-111 19 -142 8 -67 20 -85 48 -70 23 13 112 32 176 39 35 4 47 9 47 21 0 27
-97 316 -106 319 -5 1 -18 -5 -30 -13z"/>
<path d="M1917 1783 c-11 -11 -6 -195 6 -235 9 -29 38 -60 132 -139 l120 -103
9 70 c8 66 -4 247 -20 288 -6 16 -80 68 -140 99 -35 18 -98 30 -107 20z"/>
<path d="M7120 1779 c-19 -5 -62 -13 -94 -18 -72 -13 -82 -21 -69 -58 6 -15
21 -62 33 -103 32 -108 48 -142 62 -134 7 5 67 9 133 11 207 4 204 4 195 48
-21 111 -54 241 -63 253 -11 14 -141 15 -197 1z"/>
<path d="M8425 1781 c-6 -4 -39 -14 -75 -21 -63 -12 -146 -48 -182 -79 -20
-16 -24 -80 -9 -140 5 -20 15 -62 22 -95 14 -65 30 -78 60 -50 18 16 38 19
136 19 l115 0 -7 95 c-15 221 -32 297 -60 271z m-167 -339 c2 -7 -3 -12 -12
-12 -9 0 -16 7 -16 16 0 17 22 14 28 -4z"/>
<path d="M1763 1718 c-13 -6 -23 -14 -23 -17 0 -4 23 -29 51 -56 35 -34 50
-44 46 -30 -31 125 -31 124 -74 103z"/>
<path d="M6732 1719 c-61 -4 -127 -13 -145 -18 -80 -24 -112 -40 -116 -57 -5
-25 37 -213 59 -269 l12 -30 13 35 c11 33 15 35 71 42 32 4 77 15 100 23 47
18 197 37 219 29 27 -11 20 27 -35 196 -21 64 -12 61 -178 49z m153 -178 c-4
-10 -8 -11 -20 -1 -25 20 -29 50 -8 65 16 12 19 11 25 -18 4 -18 5 -38 3 -46z"/>
<path d="M9421 1699 c-61 -11 -141 -43 -141 -58 0 -6 4 -20 9 -33 5 -13 17
-59 26 -103 10 -44 26 -109 37 -144 l20 -63 37 6 c20 4 64 9 98 13 97 9 97 9
72 203 -11 91 -25 170 -31 177 -12 15 -47 15 -127 2z m-21 -265 c0 -8 -5 -12
-10 -9 -6 4 -8 11 -5 16 9 14 15 11 15 -7z"/>
<path d="M2434 1690 c-6 -6 -40 -14 -74 -18 l-64 -7 -9 -40 c-9 -42 -3 -210
10 -304 7 -48 11 -56 37 -64 16 -5 45 -20 64 -34 45 -30 82 -40 92 -23 11 18
23 317 15 376 -12 89 -24 124 -43 124 -10 0 -23 -5 -28 -10z m-64 -84 c0 -3
-4 -8 -10 -11 -5 -3 -10 -1 -10 4 0 6 5 11 10 11 6 0 10 -2 10 -4z m80 -37 c0
-11 -4 -18 -10 -14 -5 3 -7 12 -3 20 7 21 13 19 13 -6z m10 -92 c0 -8 -9 -22
-20 -32 -18 -16 -20 -16 -26 -1 -7 19 12 46 32 46 8 0 14 -6 14 -13z"/>
<path d="M8050 1575 c-12 -14 -5 -64 21 -151 5 -17 9 -42 9 -57 0 -32 16 -77
28 -77 5 0 17 15 26 33 17 31 16 36 -3 120 -12 48 -21 101 -21 117 0 25 -4 30
-24 30 -13 0 -29 -7 -36 -15z"/>
<path d="M9173 1515 c-23 -34 -23 -36 -10 -172 7 -77 16 -138 22 -138 6 0 21
8 34 17 25 17 25 18 13 106 -7 49 -12 119 -12 156 0 76 -13 85 -47 31z"/>
<path d="M4950 1519 c-19 -11 -44 -19 -55 -19 -11 0 -29 -6 -40 -13 -24 -16
-68 -29 -190 -57 -49 -12 -115 -31 -145 -42 -30 -11 -66 -22 -80 -25 -75 -14
-73 -11 -66 -48 4 -18 16 -62 26 -97 11 -35 25 -81 31 -103 26 -92 29 -98 63
-90 17 4 51 11 76 16 153 28 211 41 269 63 152 56 213 76 260 82 28 4 51 10
51 14 0 11 -25 79 -47 130 -11 25 -29 65 -39 90 -23 56 -62 120 -72 119 -4 -1
-23 -10 -42 -20z"/>
<path d="M7925 1523 c-22 -9 -69 -19 -105 -23 -62 -7 -122 -25 -200 -59 -19
-8 -60 -22 -90 -32 -60 -19 -59 -17 -41 -99 6 -25 14 -67 20 -95 14 -75 47
-155 63 -155 11 0 19 36 12 55 -6 15 -3 16 24 10 30 -6 32 -5 32 22 0 15 -7
37 -15 47 -13 17 -21 56 -12 56 2 0 18 -7 35 -16 25 -12 32 -22 32 -44 0 -44
10 -60 37 -60 22 0 25 -4 20 -25 -3 -18 1 -29 14 -36 13 -7 19 -21 19 -46 0
-32 -2 -35 -22 -28 -60 19 -79 18 -95 -4 -8 -12 -22 -21 -31 -20 -52 5 -54 2
-47 -58 3 -32 10 -67 15 -78 8 -18 19 -53 62 -217 6 -21 16 -38 23 -38 15 0
62 15 145 47 61 24 251 141 265 163 3 6 19 10 36 10 35 0 37 12 10 96 -11 32
-27 89 -37 127 -9 37 -21 67 -26 67 -5 0 -29 -12 -53 -26 -35 -20 -55 -25 -96
-23 -39 2 -53 -1 -60 -14 -6 -9 -21 -17 -34 -17 -21 0 -25 5 -25 28 0 15 -5
33 -11 39 -21 21 -3 43 30 37 27 -6 31 -3 37 22 9 40 22 54 49 54 12 0 28 7
35 15 7 8 19 15 27 15 8 0 28 7 44 16 34 17 35 31 10 134 -6 25 -14 61 -17 80
-7 44 -24 90 -33 89 -3 -1 -24 -8 -46 -16z m-232 -145 c-7 -40 -9 -42 -22 -33
-15 8 -14 38 1 53 20 20 28 13 21 -20z m-93 -68 c0 -45 -18 -47 -41 -4 -11 22
-11 27 1 34 29 19 40 11 40 -30z m200 -161 c0 -5 -4 -9 -10 -9 -5 0 -10 7 -10
16 0 8 5 12 10 9 6 -3 10 -10 10 -16z"/>
<path d="M5100 1484 c0 -3 11 -20 24 -37 13 -18 43 -67 66 -109 43 -80 64 -94
90 -63 7 8 21 15 31 15 38 0 17 27 -86 113 -96 79 -125 98 -125 81z"/>
<path d="M9055 1418 c-11 -6 -21 -12 -23 -13 -2 -2 11 -62 28 -135 16 -72 30
-140 30 -150 0 -26 19 -35 36 -18 13 12 13 23 0 84 -8 38 -17 98 -21 134 -11
116 -13 119 -50 98z"/>
<path d="M7370 1370 c-14 -5 -91 -6 -171 -3 l-145 6 2 -167 c1 -92 5 -170 8
-173 10 -10 227 15 286 33 30 9 71 17 90 19 40 3 40 3 20 100 -25 117 -45 188
-55 191 -5 1 -21 -2 -35 -6z"/>
<path d="M6860 1350 c-30 -4 -72 -15 -92 -24 -21 -9 -53 -16 -72 -16 -20 0
-51 -8 -71 -17 -29 -14 -40 -15 -56 -5 -17 11 -19 9 -19 -13 0 -47 51 -255 69
-284 7 -11 16 -11 52 2 72 26 178 39 255 32 l72 -7 1 93 c1 52 -2 129 -5 172
l-7 77 -36 -1 c-20 -1 -61 -5 -91 -9z m-155 -140 c3 -5 1 -10 -4 -10 -6 0 -11
5 -11 10 0 6 2 10 4 10 3 0 8 -4 11 -10z m-56 -26 c3 -16 1 -17 -13 -5 -19 16
-21 34 -3 29 6 -3 14 -13 16 -24z"/>
<path d="M4218 1335 c-11 -11 -302 -48 -415 -52 -62 -3 -134 0 -160 6 -61 13
-71 3 -50 -46 16 -35 41 -123 54 -183 3 -14 10 -31 16 -38 9 -11 13 -11 23 3
7 10 20 15 28 12 8 -3 101 -9 208 -12 106 -4 231 -11 278 -16 47 -5 98 -9 114
-9 31 0 31 7 8 90 -26 90 -45 159 -55 200 -11 41 -33 61 -49 45z"/>
<path d="M8785 1310 c-33 -10 -90 -19 -127 -19 -37 -1 -69 -4 -71 -8 -8 -15
38 -352 50 -364 9 -9 28 -5 80 13 86 32 192 58 232 58 42 0 41 14 -16 193 -53
166 -44 158 -148 127z"/>
<path d="M3245 1303 c-66 -15 -171 -48 -176 -56 -3 -5 22 -93 57 -195 35 -103
64 -188 64 -189 0 -2 9 -3 20 -3 11 0 25 9 32 20 7 11 20 20 30 20 9 0 20 5
23 10 3 6 13 10 22 10 8 0 36 14 62 31 37 26 55 32 94 30 56 -2 65 11 49 67
-6 20 -18 75 -27 121 -26 138 -23 136 -135 138 -52 0 -104 -1 -115 -4z"/>
<path d="M8395 1254 c-49 -13 -102 -27 -117 -30 -32 -8 -34 -16 -12 -98 64
-252 71 -270 93 -260 35 15 148 32 175 27 l29 -6 -7 44 c-4 24 -11 94 -16 155
-10 125 -25 194 -43 193 -7 0 -52 -11 -102 -25z"/>
<path d="M6010 1223 c-19 -2 -44 -8 -55 -13 -102 -46 -143 -62 -181 -67 -25
-3 -47 -10 -50 -14 -3 -5 18 -35 45 -67 28 -32 51 -63 51 -68 0 -6 16 -26 36
-45 36 -34 37 -34 32 -8 -4 22 -1 25 14 21 10 -2 20 2 24 12 7 17 64 23 64 6
0 -5 5 -10 10 -10 6 0 9 6 8 13 -2 8 11 12 42 12 43 0 45 1 44 28 0 15 -1 68
-2 117 -2 100 6 92 -82 83z"/>
<path d="M2925 1180 c-7 -11 -59 -36 -146 -70 -30 -12 -58 -25 -64 -30 -5 -4
-26 -12 -45 -17 -32 -8 -35 -13 -38 -49 l-3 -41 142 -87 142 -88 61 7 c33 3
63 11 67 16 3 6 0 33 -8 62 -13 48 -49 217 -60 280 -5 27 -35 38 -48 17z"/>
<path d="M8152 1164 c-12 -8 -22 -26 -22 -38 0 -27 52 -192 81 -253 20 -45 25
-48 49 -33 15 9 14 19 -25 175 -44 177 -43 177 -83 149z"/>
<path d="M5125 1005 c-92 -30 -211 -61 -310 -80 -44 -9 -100 -20 -125 -26 -25
-6 -78 -13 -117 -16 -68 -5 -73 -8 -73 -29 0 -45 24 -145 50 -209 5 -11 11
-40 14 -65 10 -76 49 -224 62 -239 11 -12 16 -12 28 -1 9 7 16 18 16 24 0 7
25 12 66 13 36 1 69 4 72 7 3 3 -2 14 -11 24 -20 22 -23 62 -4 62 6 0 20 -17
30 -38 l18 -37 112 1 c136 2 219 11 270 30 20 8 50 14 66 14 47 0 61 23 60 93
-2 92 -11 123 -34 119 -11 -2 -56 -10 -99 -17 -43 -8 -83 -12 -87 -9 -5 3 -17
0 -28 -5 -11 -6 -88 -13 -173 -16 -84 -3 -189 -7 -233 -9 -90 -4 -115 4 -115
39 0 26 18 40 66 51 71 16 95 16 119 0 31 -20 35 -20 35 2 0 14 10 17 53 19
90 2 95 3 107 18 10 12 15 12 36 -2 16 -10 28 -12 37 -6 23 19 84 22 106 7 19
-14 22 -14 27 1 4 8 4 29 0 45 -7 36 8 39 29 6 11 -16 22 -22 35 -19 11 3 31
-2 45 -11 13 -9 27 -16 30 -16 7 0 -3 68 -15 95 -5 11 -18 52 -30 91 -20 69
-44 115 -58 113 -4 -1 -38 -12 -77 -24z m-1 -83 c8 -13 -11 -35 -23 -28 -16
10 -14 36 3 36 8 0 17 -4 20 -8z m16 -62 c0 -5 -2 -10 -4 -10 -3 0 -8 5 -11
10 -3 6 -1 10 4 10 6 0 11 -4 11 -10z m-360 -371 c0 -5 -7 -6 -15 -3 -8 4 -15
13 -15 21 0 13 3 13 15 3 8 -7 15 -16 15 -21z"/>
<path d="M7450 914 c-83 -27 -194 -44 -282 -44 -48 0 -89 -4 -92 -8 -3 -5 1
-53 9 -108 8 -54 15 -133 15 -175 0 -102 10 -115 76 -100 27 7 83 19 124 27
41 8 98 21 125 29 28 8 76 17 108 21 32 4 60 10 62 15 3 4 -8 64 -25 133 -16
69 -30 140 -30 157 0 36 -16 69 -33 68 -7 0 -32 -7 -57 -15z m60 -134 c0 -5
-4 -10 -9 -10 -6 0 -13 5 -16 10 -3 6 1 10 9 10 9 0 16 -4 16 -10z m-113 -122
c13 -13 23 -33 23 -50 0 -37 -24 -37 -40 2 -7 16 -18 35 -26 41 -8 6 -14 15
-14 20 0 17 34 9 57 -13z"/>
<path d="M6080 906 c0 -11 -11 -15 -42 -15 -24 0 -52 -1 -63 -2 -11 -1 -38 1
-59 6 l-39 8 23 -44 c12 -24 26 -51 31 -59 10 -17 13 -23 41 -100 11 -30 30
-75 41 -100 20 -43 21 -59 19 -317 l-2 -273 24 0 c21 0 26 6 32 36 7 39 42 63
57 38 21 -36 28 -9 27 99 0 61 2 154 6 204 8 114 2 124 -65 116 -55 -6 -66 3
-75 63 -9 52 10 70 70 67 l44 -1 0 49 c0 45 -5 74 -34 188 -11 43 -36 69 -36
37z"/>
<path d="M3795 893 c-16 -2 -47 -8 -69 -14 -38 -10 -38 -11 -32 -52 4 -23 12
-58 18 -77 28 -90 61 -177 74 -198 17 -25 34 -21 34 9 0 13 7 19 23 19 13 0
32 7 43 15 11 9 42 14 77 15 49 0 57 3 55 18 -3 18 -2 18 50 9 24 -5 32 -3 32
8 0 23 16 26 67 15 33 -8 49 -8 51 -1 2 6 13 11 23 11 11 0 28 4 37 9 9 4 33
11 53 14 32 5 38 2 48 -19 15 -33 31 -30 31 6 0 36 -18 125 -32 163 -10 26
-14 27 -78 27 -37 0 -111 7 -166 15 -89 13 -261 18 -339 8z m85 -63 c0 -5 9
-19 20 -30 14 -14 16 -20 7 -20 -13 0 -36 21 -51 48 -4 7 -1 12 8 12 9 0 16
-4 16 -10z m200 -161 c0 -6 -4 -7 -10 -4 -5 3 -10 11 -10 16 0 6 5 7 10 4 6
-3 10 -11 10 -16z"/>
<path d="M6795 854 c-27 -7 -61 -14 -75 -14 -45 -1 -54 -13 -40 -56 11 -39 18
-57 38 -104 6 -14 26 -65 44 -115 l34 -90 90 -8 c166 -16 169 -15 167 13 -15
242 -24 361 -29 374 -5 13 -22 16 -93 15 -47 0 -108 -7 -136 -15z"/>
<path d="M3520 810 c-19 -11 -55 -19 -80 -20 -25 0 -55 -7 -67 -15 -14 -10
-32 -13 -48 -9 -19 5 -25 2 -25 -10 0 -9 -16 -24 -35 -33 -39 -19 -42 -30 -19
-79 13 -28 32 -41 101 -74 46 -21 90 -37 97 -34 7 3 16 -2 20 -12 6 -15 8 -16
25 0 9 9 21 13 24 9 12 -12 7 -23 -10 -24 -10 0 1 -9 23 -19 34 -15 50 -17 85
-9 24 6 54 7 67 4 20 -5 23 -3 18 15 -3 11 -9 30 -12 43 -3 12 -25 74 -49 137
-24 63 -46 123 -49 133 -7 22 -22 21 -66 -3z"/>
<path d="M8674 756 c-13 -10 -16 -18 -9 -25 7 -7 23 -3 50 14 l40 24 -31 1
c-16 0 -39 -6 -50 -14z"/>
<path d="M8551 731 c-8 -5 -50 -15 -93 -22 l-80 -13 7 -35 c9 -54 15 -71 26
-71 14 0 189 91 189 99 0 3 -3 16 -6 29 -7 23 -20 27 -43 13z"/>
<path d="M8291 666 c-7 -9 -5 -27 8 -62 30 -79 64 -59 41 24 -11 43 -32 59
-49 38z"/>
<path d="M8125 601 c-44 -20 -126 -62 -181 -94 -73 -42 -119 -61 -165 -69 -35
-6 -68 -14 -72 -18 -9 -8 11 -97 22 -105 14 -8 501 181 523 203 8 8 -22 97
-38 111 -5 4 -44 -8 -89 -28z m-75 -137 c0 -14 -4 -23 -10 -19 -5 3 -10 15
-10 26 0 10 5 19 10 19 6 0 10 -12 10 -26z"/>
<path d="M4395 592 c-19 -17 -280 -78 -463 -108 l-113 -18 6 -36 c12 -66 21
-71 223 -137 105 -35 204 -63 220 -63 35 0 91 18 112 36 8 7 38 14 65 16 49 3
50 4 47 33 -1 17 -7 41 -12 55 -6 14 -17 57 -26 95 -26 119 -29 128 -40 132
-5 2 -14 -1 -19 -5z"/>
<path d="M5889 465 c-3 -2 -59 -15 -124 -29 -138 -28 -251 -60 -305 -86 -21
-10 -34 -136 -25 -243 4 -48 11 -87 15 -87 5 0 21 11 36 25 14 13 46 34 70 46
24 11 44 25 44 30 0 5 9 9 19 9 11 0 23 5 26 10 3 6 15 10 26 10 10 0 27 9 36
20 10 11 27 20 39 20 12 0 24 7 28 15 3 9 12 12 21 9 9 -4 26 -2 38 4 12 7 34
16 50 22 25 9 27 14 27 62 0 29 5 70 11 91 11 42 5 77 -15 77 -7 0 -15 -2 -17
-5z"/>
<path d="M3710 421 c0 -5 7 -12 16 -15 14 -5 15 -4 4 9 -14 17 -20 19 -20 6z"/>
<path d="M7542 395 c-24 -8 -49 -12 -56 -9 -7 3 -48 -4 -91 -15 -44 -12 -91
-21 -106 -21 -15 0 -31 -4 -34 -10 -3 -5 -29 -10 -56 -10 -51 0 -72 -17 -52
-43 5 -6 15 -38 22 -70 l13 -59 36 7 c54 9 72 15 72 24 0 5 11 6 25 3 19 -3
27 1 34 19 7 18 10 20 10 6 1 -14 6 -16 29 -11 51 13 185 54 190 59 11 11 -10
35 -32 35 -23 0 -36 16 -36 46 0 24 17 16 63 -28 30 -30 50 -42 66 -40 30 5
33 18 18 77 -12 45 -16 50 -43 52 -16 1 -48 -5 -72 -12z m-122 -156 c0 -11 -4
-17 -10 -14 -5 3 -10 15 -10 26 0 11 5 17 10 14 6 -3 10 -15 10 -26z"/>
<path d="M5275 317 c-36 -24 -176 -57 -241 -57 -32 0 -60 -7 -234 -60 -36 -11
-77 -23 -92 -26 -21 -5 -28 -12 -28 -30 0 -13 1 -24 3 -24 1 0 81 -13 177 -29
235 -40 300 -46 300 -32 0 6 7 11 15 11 8 0 15 -7 15 -15 0 -10 10 -15 33 -15
17 0 51 -2 75 -6 l43 -6 -7 138 c-8 161 -15 180 -59 151z m5 -237 c0 -5 -5
-10 -11 -10 -5 0 -7 5 -4 10 3 6 8 10 11 10 2 0 4 -4 4 -10z"/>
<path d="M6843 314 c-3 -8 -1 -25 5 -37 6 -12 15 -58 21 -101 7 -44 12 -81 14
-82 2 -3 239 45 243 49 3 2 -18 88 -34 142 -7 26 -15 31 -53 37 -24 3 -77 7
-117 7 -57 1 -74 -2 -79 -15z"/>
<path d="M6680 293 c-105 -27 -209 -71 -322 -136 -88 -51 -93 -57 -78 -102
l12 -37 77 7 c129 12 432 52 438 59 8 8 -16 185 -28 207 -11 22 -23 22 -99 2z
m-7 -71 c10 -10 14 -22 10 -25 -7 -8 -43 21 -43 35 0 14 16 9 33 -10z m-36
-44 c7 -6 13 -17 13 -26 0 -12 -5 -11 -23 6 -13 12 -28 22 -35 22 -6 0 -14 5
-18 11 -8 14 44 3 63 -13z m-129 -64 c-10 -10 -28 6 -28 24 0 15 1 15 17 -1 9
-9 14 -19 11 -23z m-98 -15 c0 -5 -4 -9 -10 -9 -5 0 -10 7 -10 16 0 8 5 12 10
9 6 -3 10 -10 10 -16z m60 -15 c0 -8 -4 -12 -10 -9 -5 3 -10 13 -10 21 0 8 5
12 10 9 6 -3 10 -13 10 -21z m-105 -4 c3 -5 1 -10 -4 -10 -6 0 -11 5 -11 10 0
6 2 10 4 10 3 0 8 -4 11 -10z"/>
<path d="M5800 54 c-36 -19 -69 -39 -74 -45 -6 -5 27 -9 90 -9 l100 0 -5 43
c-8 55 -26 57 -111 11z"/>
<path d="M6160 25 c-11 -13 -9 -15 15 -15 16 0 25 5 23 12 -7 19 -24 20 -38 3z"/>
</g>
</svg>
